<mxfile host="app.diagrams.net" agent="Mozilla/5.0 (Windows NT 10.0; Win64; x64; rv:137.0) Gecko/20100101 Firefox/137.0" version="26.2.13">
  <diagram name="Página-1" id="LyrA__-P8WXlEin0bEXl">
    <mxGraphModel dx="2567" dy="2427" grid="0" gridSize="10" guides="1" tooltips="1" connect="1" arrows="1" fold="1" page="1" pageScale="1" pageWidth="827" pageHeight="1169" math="0" shadow="0">
      <root>
        <mxCell id="0" />
        <mxCell id="1" parent="0" />
        <mxCell id="_RPZ-dkCC6IvJmCxnSjo-1" value="Socio" style="rounded=0;whiteSpace=wrap;html=1;" vertex="1" parent="1">
          <mxGeometry x="233" y="-107" width="159" height="56" as="geometry" />
        </mxCell>
        <mxCell id="_RPZ-dkCC6IvJmCxnSjo-2" value="Professor" style="rounded=0;whiteSpace=wrap;html=1;" vertex="1" parent="1">
          <mxGeometry x="843" y="400" width="159" height="56" as="geometry" />
        </mxCell>
        <mxCell id="_RPZ-dkCC6IvJmCxnSjo-3" value="Aula" style="rounded=0;whiteSpace=wrap;html=1;" vertex="1" parent="1">
          <mxGeometry x="1446" y="403" width="159" height="56" as="geometry" />
        </mxCell>
        <mxCell id="_RPZ-dkCC6IvJmCxnSjo-4" value="Sala" style="rounded=0;whiteSpace=wrap;html=1;" vertex="1" parent="1">
          <mxGeometry x="1446" y="-116" width="159" height="56" as="geometry" />
        </mxCell>
        <mxCell id="_RPZ-dkCC6IvJmCxnSjo-5" value="Material" style="rounded=0;whiteSpace=wrap;html=1;" vertex="1" parent="1">
          <mxGeometry x="839" y="-120" width="159" height="56" as="geometry" />
        </mxCell>
        <mxCell id="_RPZ-dkCC6IvJmCxnSjo-6" value="Sessão PT" style="rounded=0;whiteSpace=wrap;html=1;" vertex="1" parent="1">
          <mxGeometry x="237" y="395" width="159" height="56" as="geometry" />
        </mxCell>
        <mxCell id="_RPZ-dkCC6IvJmCxnSjo-7" value="" style="group" vertex="1" connectable="0" parent="1">
          <mxGeometry x="263.5" y="451" width="20" height="202" as="geometry" />
        </mxCell>
        <mxCell id="_RPZ-dkCC6IvJmCxnSjo-8" value="" style="endArrow=none;html=1;rounded=0;" edge="1" parent="_RPZ-dkCC6IvJmCxnSjo-7" source="_RPZ-dkCC6IvJmCxnSjo-10">
          <mxGeometry width="50" height="50" relative="1" as="geometry">
            <mxPoint x="10" y="266" as="sourcePoint" />
            <mxPoint x="10" as="targetPoint" />
          </mxGeometry>
        </mxCell>
        <mxCell id="_RPZ-dkCC6IvJmCxnSjo-9" value="" style="endArrow=none;html=1;rounded=0;" edge="1" parent="_RPZ-dkCC6IvJmCxnSjo-7" source="_RPZ-dkCC6IvJmCxnSjo-13" target="_RPZ-dkCC6IvJmCxnSjo-10">
          <mxGeometry width="50" height="50" relative="1" as="geometry">
            <mxPoint x="10" y="266" as="sourcePoint" />
            <mxPoint x="10" as="targetPoint" />
          </mxGeometry>
        </mxCell>
        <mxCell id="_RPZ-dkCC6IvJmCxnSjo-10" value="" style="ellipse;whiteSpace=wrap;html=1;aspect=fixed;" vertex="1" parent="_RPZ-dkCC6IvJmCxnSjo-7">
          <mxGeometry y="46" width="20" height="20" as="geometry" />
        </mxCell>
        <mxCell id="_RPZ-dkCC6IvJmCxnSjo-11" value="" style="ellipse;whiteSpace=wrap;html=1;aspect=fixed;" vertex="1" parent="_RPZ-dkCC6IvJmCxnSjo-7">
          <mxGeometry y="11" width="20" height="20" as="geometry" />
        </mxCell>
        <mxCell id="_RPZ-dkCC6IvJmCxnSjo-12" value="" style="endArrow=none;html=1;rounded=0;" edge="1" parent="_RPZ-dkCC6IvJmCxnSjo-7" source="_RPZ-dkCC6IvJmCxnSjo-16" target="_RPZ-dkCC6IvJmCxnSjo-13">
          <mxGeometry width="50" height="50" relative="1" as="geometry">
            <mxPoint x="10" y="266" as="sourcePoint" />
            <mxPoint x="10" y="65" as="targetPoint" />
          </mxGeometry>
        </mxCell>
        <mxCell id="_RPZ-dkCC6IvJmCxnSjo-13" value="" style="ellipse;whiteSpace=wrap;html=1;aspect=fixed;" vertex="1" parent="_RPZ-dkCC6IvJmCxnSjo-7">
          <mxGeometry y="80" width="20" height="20" as="geometry" />
        </mxCell>
        <mxCell id="_RPZ-dkCC6IvJmCxnSjo-14" value="" style="ellipse;whiteSpace=wrap;html=1;aspect=fixed;" vertex="1" parent="_RPZ-dkCC6IvJmCxnSjo-7">
          <mxGeometry y="115" width="20" height="20" as="geometry" />
        </mxCell>
        <mxCell id="_RPZ-dkCC6IvJmCxnSjo-15" value="" style="ellipse;whiteSpace=wrap;html=1;aspect=fixed;" vertex="1" parent="_RPZ-dkCC6IvJmCxnSjo-7">
          <mxGeometry y="149" width="20" height="20" as="geometry" />
        </mxCell>
        <mxCell id="_RPZ-dkCC6IvJmCxnSjo-16" value="" style="ellipse;whiteSpace=wrap;html=1;aspect=fixed;" vertex="1" parent="_RPZ-dkCC6IvJmCxnSjo-7">
          <mxGeometry y="182" width="20" height="20" as="geometry" />
        </mxCell>
        <mxCell id="_RPZ-dkCC6IvJmCxnSjo-17" value="IdsessãoPT" style="text;html=1;align=center;verticalAlign=middle;whiteSpace=wrap;rounded=0;" vertex="1" parent="1">
          <mxGeometry x="288.5" y="458" width="60" height="30" as="geometry" />
        </mxCell>
        <mxCell id="_RPZ-dkCC6IvJmCxnSjo-18" value="Duração" style="text;html=1;align=center;verticalAlign=middle;whiteSpace=wrap;rounded=0;" vertex="1" parent="1">
          <mxGeometry x="288.5" y="493" width="60" height="30" as="geometry" />
        </mxCell>
        <mxCell id="_RPZ-dkCC6IvJmCxnSjo-19" value="Data" style="text;html=1;align=center;verticalAlign=middle;whiteSpace=wrap;rounded=0;" vertex="1" parent="1">
          <mxGeometry x="288.5" y="528" width="60" height="30" as="geometry" />
        </mxCell>
        <mxCell id="_RPZ-dkCC6IvJmCxnSjo-20" value="Hora" style="text;html=1;align=center;verticalAlign=middle;whiteSpace=wrap;rounded=0;" vertex="1" parent="1">
          <mxGeometry x="288.5" y="564" width="60" height="30" as="geometry" />
        </mxCell>
        <mxCell id="_RPZ-dkCC6IvJmCxnSjo-21" value="Tipo de sessão" style="text;html=1;align=center;verticalAlign=middle;whiteSpace=wrap;rounded=0;" vertex="1" parent="1">
          <mxGeometry x="288.5" y="597" width="60" height="30" as="geometry" />
        </mxCell>
        <mxCell id="_RPZ-dkCC6IvJmCxnSjo-22" value="" style="group" vertex="1" connectable="0" parent="1">
          <mxGeometry x="1513" y="-59" width="20" height="202" as="geometry" />
        </mxCell>
        <mxCell id="_RPZ-dkCC6IvJmCxnSjo-23" value="" style="endArrow=none;html=1;rounded=0;" edge="1" parent="_RPZ-dkCC6IvJmCxnSjo-22" source="_RPZ-dkCC6IvJmCxnSjo-25">
          <mxGeometry width="50" height="50" relative="1" as="geometry">
            <mxPoint x="10" y="266" as="sourcePoint" />
            <mxPoint x="10" as="targetPoint" />
          </mxGeometry>
        </mxCell>
        <mxCell id="_RPZ-dkCC6IvJmCxnSjo-24" value="" style="endArrow=none;html=1;rounded=0;" edge="1" parent="_RPZ-dkCC6IvJmCxnSjo-22" source="_RPZ-dkCC6IvJmCxnSjo-28" target="_RPZ-dkCC6IvJmCxnSjo-25">
          <mxGeometry width="50" height="50" relative="1" as="geometry">
            <mxPoint x="10" y="266" as="sourcePoint" />
            <mxPoint x="10" as="targetPoint" />
          </mxGeometry>
        </mxCell>
        <mxCell id="_RPZ-dkCC6IvJmCxnSjo-25" value="" style="ellipse;whiteSpace=wrap;html=1;aspect=fixed;" vertex="1" parent="_RPZ-dkCC6IvJmCxnSjo-22">
          <mxGeometry y="46" width="20" height="20" as="geometry" />
        </mxCell>
        <mxCell id="_RPZ-dkCC6IvJmCxnSjo-26" value="" style="ellipse;whiteSpace=wrap;html=1;aspect=fixed;" vertex="1" parent="_RPZ-dkCC6IvJmCxnSjo-22">
          <mxGeometry y="11" width="20" height="20" as="geometry" />
        </mxCell>
        <mxCell id="_RPZ-dkCC6IvJmCxnSjo-27" value="" style="endArrow=none;html=1;rounded=0;" edge="1" parent="_RPZ-dkCC6IvJmCxnSjo-22" target="_RPZ-dkCC6IvJmCxnSjo-28">
          <mxGeometry width="50" height="50" relative="1" as="geometry">
            <mxPoint x="10" y="122" as="sourcePoint" />
            <mxPoint x="10" y="65" as="targetPoint" />
          </mxGeometry>
        </mxCell>
        <mxCell id="_RPZ-dkCC6IvJmCxnSjo-28" value="" style="ellipse;whiteSpace=wrap;html=1;aspect=fixed;" vertex="1" parent="_RPZ-dkCC6IvJmCxnSjo-22">
          <mxGeometry y="80" width="20" height="20" as="geometry" />
        </mxCell>
        <mxCell id="_RPZ-dkCC6IvJmCxnSjo-29" value="IdSala" style="text;html=1;align=center;verticalAlign=middle;whiteSpace=wrap;rounded=0;" vertex="1" parent="1">
          <mxGeometry x="1538" y="-52" width="60" height="30" as="geometry" />
        </mxCell>
        <mxCell id="_RPZ-dkCC6IvJmCxnSjo-30" value="Descrição" style="text;html=1;align=center;verticalAlign=middle;whiteSpace=wrap;rounded=0;" vertex="1" parent="1">
          <mxGeometry x="1538" y="-17" width="60" height="30" as="geometry" />
        </mxCell>
        <mxCell id="_RPZ-dkCC6IvJmCxnSjo-31" value="Text" style="text;html=1;align=center;verticalAlign=middle;whiteSpace=wrap;rounded=0;" vertex="1" parent="1">
          <mxGeometry x="1538" y="18" width="60" height="30" as="geometry" />
        </mxCell>
        <mxCell id="_RPZ-dkCC6IvJmCxnSjo-32" value="" style="group" vertex="1" connectable="0" parent="1">
          <mxGeometry x="899" y="-64" width="20" height="202" as="geometry" />
        </mxCell>
        <mxCell id="_RPZ-dkCC6IvJmCxnSjo-33" value="" style="endArrow=none;html=1;rounded=0;" edge="1" parent="_RPZ-dkCC6IvJmCxnSjo-32" source="_RPZ-dkCC6IvJmCxnSjo-35">
          <mxGeometry width="50" height="50" relative="1" as="geometry">
            <mxPoint x="10" y="266" as="sourcePoint" />
            <mxPoint x="10" as="targetPoint" />
          </mxGeometry>
        </mxCell>
        <mxCell id="_RPZ-dkCC6IvJmCxnSjo-34" value="" style="endArrow=none;html=1;rounded=0;" edge="1" parent="_RPZ-dkCC6IvJmCxnSjo-32" source="_RPZ-dkCC6IvJmCxnSjo-38" target="_RPZ-dkCC6IvJmCxnSjo-35">
          <mxGeometry width="50" height="50" relative="1" as="geometry">
            <mxPoint x="10" y="266" as="sourcePoint" />
            <mxPoint x="10" as="targetPoint" />
          </mxGeometry>
        </mxCell>
        <mxCell id="_RPZ-dkCC6IvJmCxnSjo-35" value="" style="ellipse;whiteSpace=wrap;html=1;aspect=fixed;" vertex="1" parent="_RPZ-dkCC6IvJmCxnSjo-32">
          <mxGeometry y="46" width="20" height="20" as="geometry" />
        </mxCell>
        <mxCell id="_RPZ-dkCC6IvJmCxnSjo-36" value="" style="ellipse;whiteSpace=wrap;html=1;aspect=fixed;" vertex="1" parent="_RPZ-dkCC6IvJmCxnSjo-32">
          <mxGeometry y="11" width="20" height="20" as="geometry" />
        </mxCell>
        <mxCell id="_RPZ-dkCC6IvJmCxnSjo-37" value="" style="endArrow=none;html=1;rounded=0;" edge="1" parent="_RPZ-dkCC6IvJmCxnSjo-32" source="_RPZ-dkCC6IvJmCxnSjo-41" target="_RPZ-dkCC6IvJmCxnSjo-38">
          <mxGeometry width="50" height="50" relative="1" as="geometry">
            <mxPoint x="10" y="266" as="sourcePoint" />
            <mxPoint x="10" y="65" as="targetPoint" />
          </mxGeometry>
        </mxCell>
        <mxCell id="_RPZ-dkCC6IvJmCxnSjo-38" value="" style="ellipse;whiteSpace=wrap;html=1;aspect=fixed;" vertex="1" parent="_RPZ-dkCC6IvJmCxnSjo-32">
          <mxGeometry y="80" width="20" height="20" as="geometry" />
        </mxCell>
        <mxCell id="_RPZ-dkCC6IvJmCxnSjo-39" value="" style="ellipse;whiteSpace=wrap;html=1;aspect=fixed;" vertex="1" parent="_RPZ-dkCC6IvJmCxnSjo-32">
          <mxGeometry y="115" width="20" height="20" as="geometry" />
        </mxCell>
        <mxCell id="_RPZ-dkCC6IvJmCxnSjo-40" value="" style="ellipse;whiteSpace=wrap;html=1;aspect=fixed;" vertex="1" parent="_RPZ-dkCC6IvJmCxnSjo-32">
          <mxGeometry y="149" width="20" height="20" as="geometry" />
        </mxCell>
        <mxCell id="_RPZ-dkCC6IvJmCxnSjo-41" value="" style="ellipse;whiteSpace=wrap;html=1;aspect=fixed;" vertex="1" parent="_RPZ-dkCC6IvJmCxnSjo-32">
          <mxGeometry y="182" width="20" height="20" as="geometry" />
        </mxCell>
        <mxCell id="_RPZ-dkCC6IvJmCxnSjo-42" value="IdMaterial" style="text;html=1;align=center;verticalAlign=middle;whiteSpace=wrap;rounded=0;" vertex="1" parent="1">
          <mxGeometry x="924" y="-57" width="60" height="30" as="geometry" />
        </mxCell>
        <mxCell id="_RPZ-dkCC6IvJmCxnSjo-43" value="Descrição" style="text;html=1;align=center;verticalAlign=middle;whiteSpace=wrap;rounded=0;" vertex="1" parent="1">
          <mxGeometry x="924" y="-22" width="60" height="30" as="geometry" />
        </mxCell>
        <mxCell id="_RPZ-dkCC6IvJmCxnSjo-44" value="Text" style="text;html=1;align=center;verticalAlign=middle;whiteSpace=wrap;rounded=0;" vertex="1" parent="1">
          <mxGeometry x="924" y="13" width="60" height="30" as="geometry" />
        </mxCell>
        <mxCell id="_RPZ-dkCC6IvJmCxnSjo-45" value="Text" style="text;html=1;align=center;verticalAlign=middle;whiteSpace=wrap;rounded=0;" vertex="1" parent="1">
          <mxGeometry x="924" y="49" width="60" height="30" as="geometry" />
        </mxCell>
        <mxCell id="_RPZ-dkCC6IvJmCxnSjo-46" value="Text" style="text;html=1;align=center;verticalAlign=middle;whiteSpace=wrap;rounded=0;" vertex="1" parent="1">
          <mxGeometry x="924" y="82" width="60" height="30" as="geometry" />
        </mxCell>
        <mxCell id="_RPZ-dkCC6IvJmCxnSjo-47" value="Text" style="text;html=1;align=center;verticalAlign=middle;whiteSpace=wrap;rounded=0;" vertex="1" parent="1">
          <mxGeometry x="924" y="115" width="60" height="30" as="geometry" />
        </mxCell>
        <mxCell id="_RPZ-dkCC6IvJmCxnSjo-48" value="" style="group" vertex="1" connectable="0" parent="1">
          <mxGeometry x="244" y="-51" width="20" height="202" as="geometry" />
        </mxCell>
        <mxCell id="_RPZ-dkCC6IvJmCxnSjo-49" value="" style="endArrow=none;html=1;rounded=0;" edge="1" parent="_RPZ-dkCC6IvJmCxnSjo-48" source="_RPZ-dkCC6IvJmCxnSjo-51">
          <mxGeometry width="50" height="50" relative="1" as="geometry">
            <mxPoint x="10" y="266" as="sourcePoint" />
            <mxPoint x="10" as="targetPoint" />
          </mxGeometry>
        </mxCell>
        <mxCell id="_RPZ-dkCC6IvJmCxnSjo-50" value="" style="endArrow=none;html=1;rounded=0;" edge="1" parent="_RPZ-dkCC6IvJmCxnSjo-48" source="_RPZ-dkCC6IvJmCxnSjo-54" target="_RPZ-dkCC6IvJmCxnSjo-51">
          <mxGeometry width="50" height="50" relative="1" as="geometry">
            <mxPoint x="10" y="266" as="sourcePoint" />
            <mxPoint x="10" as="targetPoint" />
          </mxGeometry>
        </mxCell>
        <mxCell id="_RPZ-dkCC6IvJmCxnSjo-51" value="" style="ellipse;whiteSpace=wrap;html=1;aspect=fixed;" vertex="1" parent="_RPZ-dkCC6IvJmCxnSjo-48">
          <mxGeometry y="46" width="20" height="20" as="geometry" />
        </mxCell>
        <mxCell id="_RPZ-dkCC6IvJmCxnSjo-52" value="" style="ellipse;whiteSpace=wrap;html=1;aspect=fixed;" vertex="1" parent="_RPZ-dkCC6IvJmCxnSjo-48">
          <mxGeometry y="11" width="20" height="20" as="geometry" />
        </mxCell>
        <mxCell id="_RPZ-dkCC6IvJmCxnSjo-53" value="" style="endArrow=none;html=1;rounded=0;" edge="1" parent="_RPZ-dkCC6IvJmCxnSjo-48" source="_RPZ-dkCC6IvJmCxnSjo-57" target="_RPZ-dkCC6IvJmCxnSjo-54">
          <mxGeometry width="50" height="50" relative="1" as="geometry">
            <mxPoint x="10" y="266" as="sourcePoint" />
            <mxPoint x="10" y="65" as="targetPoint" />
          </mxGeometry>
        </mxCell>
        <mxCell id="_RPZ-dkCC6IvJmCxnSjo-54" value="" style="ellipse;whiteSpace=wrap;html=1;aspect=fixed;" vertex="1" parent="_RPZ-dkCC6IvJmCxnSjo-48">
          <mxGeometry y="80" width="20" height="20" as="geometry" />
        </mxCell>
        <mxCell id="_RPZ-dkCC6IvJmCxnSjo-55" value="" style="ellipse;whiteSpace=wrap;html=1;aspect=fixed;" vertex="1" parent="_RPZ-dkCC6IvJmCxnSjo-48">
          <mxGeometry y="115" width="20" height="20" as="geometry" />
        </mxCell>
        <mxCell id="_RPZ-dkCC6IvJmCxnSjo-56" value="" style="ellipse;whiteSpace=wrap;html=1;aspect=fixed;" vertex="1" parent="_RPZ-dkCC6IvJmCxnSjo-48">
          <mxGeometry y="149" width="20" height="20" as="geometry" />
        </mxCell>
        <mxCell id="_RPZ-dkCC6IvJmCxnSjo-57" value="" style="ellipse;whiteSpace=wrap;html=1;aspect=fixed;" vertex="1" parent="_RPZ-dkCC6IvJmCxnSjo-48">
          <mxGeometry y="182" width="20" height="20" as="geometry" />
        </mxCell>
        <mxCell id="_RPZ-dkCC6IvJmCxnSjo-58" value="IdSocio" style="text;html=1;align=center;verticalAlign=middle;whiteSpace=wrap;rounded=0;" vertex="1" parent="1">
          <mxGeometry x="269" y="-44" width="60" height="30" as="geometry" />
        </mxCell>
        <mxCell id="_RPZ-dkCC6IvJmCxnSjo-59" value="Nome" style="text;html=1;align=center;verticalAlign=middle;whiteSpace=wrap;rounded=0;" vertex="1" parent="1">
          <mxGeometry x="269" y="-9" width="60" height="30" as="geometry" />
        </mxCell>
        <mxCell id="_RPZ-dkCC6IvJmCxnSjo-60" value="Data de nascimento" style="text;html=1;align=center;verticalAlign=middle;whiteSpace=wrap;rounded=0;" vertex="1" parent="1">
          <mxGeometry x="269" y="26" width="60" height="30" as="geometry" />
        </mxCell>
        <mxCell id="_RPZ-dkCC6IvJmCxnSjo-61" value="Telefone" style="text;html=1;align=center;verticalAlign=middle;whiteSpace=wrap;rounded=0;" vertex="1" parent="1">
          <mxGeometry x="269" y="62" width="60" height="30" as="geometry" />
        </mxCell>
        <mxCell id="_RPZ-dkCC6IvJmCxnSjo-62" value="Text" style="text;html=1;align=center;verticalAlign=middle;whiteSpace=wrap;rounded=0;" vertex="1" parent="1">
          <mxGeometry x="269" y="95" width="60" height="30" as="geometry" />
        </mxCell>
        <mxCell id="_RPZ-dkCC6IvJmCxnSjo-63" value="Text" style="text;html=1;align=center;verticalAlign=middle;whiteSpace=wrap;rounded=0;" vertex="1" parent="1">
          <mxGeometry x="269" y="128" width="60" height="30" as="geometry" />
        </mxCell>
        <mxCell id="_RPZ-dkCC6IvJmCxnSjo-64" value="" style="group" vertex="1" connectable="0" parent="1">
          <mxGeometry x="851" y="455" width="20" height="202" as="geometry" />
        </mxCell>
        <mxCell id="_RPZ-dkCC6IvJmCxnSjo-65" value="" style="endArrow=none;html=1;rounded=0;" edge="1" parent="_RPZ-dkCC6IvJmCxnSjo-64" source="_RPZ-dkCC6IvJmCxnSjo-67">
          <mxGeometry width="50" height="50" relative="1" as="geometry">
            <mxPoint x="10" y="266" as="sourcePoint" />
            <mxPoint x="10" as="targetPoint" />
          </mxGeometry>
        </mxCell>
        <mxCell id="_RPZ-dkCC6IvJmCxnSjo-66" value="" style="endArrow=none;html=1;rounded=0;" edge="1" parent="_RPZ-dkCC6IvJmCxnSjo-64" source="_RPZ-dkCC6IvJmCxnSjo-70" target="_RPZ-dkCC6IvJmCxnSjo-67">
          <mxGeometry width="50" height="50" relative="1" as="geometry">
            <mxPoint x="10" y="266" as="sourcePoint" />
            <mxPoint x="10" as="targetPoint" />
          </mxGeometry>
        </mxCell>
        <mxCell id="_RPZ-dkCC6IvJmCxnSjo-67" value="" style="ellipse;whiteSpace=wrap;html=1;aspect=fixed;" vertex="1" parent="_RPZ-dkCC6IvJmCxnSjo-64">
          <mxGeometry y="46" width="20" height="20" as="geometry" />
        </mxCell>
        <mxCell id="_RPZ-dkCC6IvJmCxnSjo-68" value="" style="ellipse;whiteSpace=wrap;html=1;aspect=fixed;" vertex="1" parent="_RPZ-dkCC6IvJmCxnSjo-64">
          <mxGeometry y="11" width="20" height="20" as="geometry" />
        </mxCell>
        <mxCell id="_RPZ-dkCC6IvJmCxnSjo-69" value="" style="endArrow=none;html=1;rounded=0;" edge="1" parent="_RPZ-dkCC6IvJmCxnSjo-64" source="_RPZ-dkCC6IvJmCxnSjo-73" target="_RPZ-dkCC6IvJmCxnSjo-70">
          <mxGeometry width="50" height="50" relative="1" as="geometry">
            <mxPoint x="10" y="266" as="sourcePoint" />
            <mxPoint x="10" y="65" as="targetPoint" />
          </mxGeometry>
        </mxCell>
        <mxCell id="_RPZ-dkCC6IvJmCxnSjo-70" value="" style="ellipse;whiteSpace=wrap;html=1;aspect=fixed;" vertex="1" parent="_RPZ-dkCC6IvJmCxnSjo-64">
          <mxGeometry y="80" width="20" height="20" as="geometry" />
        </mxCell>
        <mxCell id="_RPZ-dkCC6IvJmCxnSjo-71" value="" style="ellipse;whiteSpace=wrap;html=1;aspect=fixed;" vertex="1" parent="_RPZ-dkCC6IvJmCxnSjo-64">
          <mxGeometry y="115" width="20" height="20" as="geometry" />
        </mxCell>
        <mxCell id="_RPZ-dkCC6IvJmCxnSjo-72" value="" style="ellipse;whiteSpace=wrap;html=1;aspect=fixed;" vertex="1" parent="_RPZ-dkCC6IvJmCxnSjo-64">
          <mxGeometry y="149" width="20" height="20" as="geometry" />
        </mxCell>
        <mxCell id="_RPZ-dkCC6IvJmCxnSjo-73" value="" style="ellipse;whiteSpace=wrap;html=1;aspect=fixed;" vertex="1" parent="_RPZ-dkCC6IvJmCxnSjo-64">
          <mxGeometry y="182" width="20" height="20" as="geometry" />
        </mxCell>
        <mxCell id="_RPZ-dkCC6IvJmCxnSjo-74" value="IdProfessor" style="text;html=1;align=center;verticalAlign=middle;whiteSpace=wrap;rounded=0;" vertex="1" parent="1">
          <mxGeometry x="876" y="460" width="60" height="30" as="geometry" />
        </mxCell>
        <mxCell id="_RPZ-dkCC6IvJmCxnSjo-75" value="Nome" style="text;html=1;align=center;verticalAlign=middle;whiteSpace=wrap;rounded=0;" vertex="1" parent="1">
          <mxGeometry x="876" y="495" width="60" height="30" as="geometry" />
        </mxCell>
        <mxCell id="_RPZ-dkCC6IvJmCxnSjo-76" value="Text" style="text;html=1;align=center;verticalAlign=middle;whiteSpace=wrap;rounded=0;" vertex="1" parent="1">
          <mxGeometry x="876" y="530" width="60" height="30" as="geometry" />
        </mxCell>
        <mxCell id="_RPZ-dkCC6IvJmCxnSjo-77" value="Text" style="text;html=1;align=center;verticalAlign=middle;whiteSpace=wrap;rounded=0;" vertex="1" parent="1">
          <mxGeometry x="876" y="566" width="60" height="30" as="geometry" />
        </mxCell>
        <mxCell id="_RPZ-dkCC6IvJmCxnSjo-78" value="Text" style="text;html=1;align=center;verticalAlign=middle;whiteSpace=wrap;rounded=0;" vertex="1" parent="1">
          <mxGeometry x="876" y="599" width="60" height="30" as="geometry" />
        </mxCell>
        <mxCell id="_RPZ-dkCC6IvJmCxnSjo-79" value="Text" style="text;html=1;align=center;verticalAlign=middle;whiteSpace=wrap;rounded=0;" vertex="1" parent="1">
          <mxGeometry x="876" y="632" width="60" height="30" as="geometry" />
        </mxCell>
        <mxCell id="_RPZ-dkCC6IvJmCxnSjo-80" value="" style="group" vertex="1" connectable="0" parent="1">
          <mxGeometry x="1461" y="459" width="20" height="202" as="geometry" />
        </mxCell>
        <mxCell id="_RPZ-dkCC6IvJmCxnSjo-81" value="" style="endArrow=none;html=1;rounded=0;" edge="1" parent="_RPZ-dkCC6IvJmCxnSjo-80" source="_RPZ-dkCC6IvJmCxnSjo-83">
          <mxGeometry width="50" height="50" relative="1" as="geometry">
            <mxPoint x="10" y="266" as="sourcePoint" />
            <mxPoint x="10" as="targetPoint" />
          </mxGeometry>
        </mxCell>
        <mxCell id="_RPZ-dkCC6IvJmCxnSjo-82" value="" style="endArrow=none;html=1;rounded=0;" edge="1" parent="_RPZ-dkCC6IvJmCxnSjo-80" source="_RPZ-dkCC6IvJmCxnSjo-86" target="_RPZ-dkCC6IvJmCxnSjo-83">
          <mxGeometry width="50" height="50" relative="1" as="geometry">
            <mxPoint x="10" y="266" as="sourcePoint" />
            <mxPoint x="10" as="targetPoint" />
          </mxGeometry>
        </mxCell>
        <mxCell id="_RPZ-dkCC6IvJmCxnSjo-83" value="" style="ellipse;whiteSpace=wrap;html=1;aspect=fixed;" vertex="1" parent="_RPZ-dkCC6IvJmCxnSjo-80">
          <mxGeometry y="46" width="20" height="20" as="geometry" />
        </mxCell>
        <mxCell id="_RPZ-dkCC6IvJmCxnSjo-84" value="" style="ellipse;whiteSpace=wrap;html=1;aspect=fixed;" vertex="1" parent="_RPZ-dkCC6IvJmCxnSjo-80">
          <mxGeometry y="11" width="20" height="20" as="geometry" />
        </mxCell>
        <mxCell id="_RPZ-dkCC6IvJmCxnSjo-85" value="" style="endArrow=none;html=1;rounded=0;" edge="1" parent="_RPZ-dkCC6IvJmCxnSjo-80" source="_RPZ-dkCC6IvJmCxnSjo-89" target="_RPZ-dkCC6IvJmCxnSjo-86">
          <mxGeometry width="50" height="50" relative="1" as="geometry">
            <mxPoint x="10" y="266" as="sourcePoint" />
            <mxPoint x="10" y="65" as="targetPoint" />
          </mxGeometry>
        </mxCell>
        <mxCell id="_RPZ-dkCC6IvJmCxnSjo-86" value="" style="ellipse;whiteSpace=wrap;html=1;aspect=fixed;" vertex="1" parent="_RPZ-dkCC6IvJmCxnSjo-80">
          <mxGeometry y="80" width="20" height="20" as="geometry" />
        </mxCell>
        <mxCell id="_RPZ-dkCC6IvJmCxnSjo-87" value="" style="ellipse;whiteSpace=wrap;html=1;aspect=fixed;" vertex="1" parent="_RPZ-dkCC6IvJmCxnSjo-80">
          <mxGeometry y="115" width="20" height="20" as="geometry" />
        </mxCell>
        <mxCell id="_RPZ-dkCC6IvJmCxnSjo-88" value="" style="ellipse;whiteSpace=wrap;html=1;aspect=fixed;" vertex="1" parent="_RPZ-dkCC6IvJmCxnSjo-80">
          <mxGeometry y="149" width="20" height="20" as="geometry" />
        </mxCell>
        <mxCell id="_RPZ-dkCC6IvJmCxnSjo-89" value="" style="ellipse;whiteSpace=wrap;html=1;aspect=fixed;" vertex="1" parent="_RPZ-dkCC6IvJmCxnSjo-80">
          <mxGeometry y="182" width="20" height="20" as="geometry" />
        </mxCell>
        <mxCell id="_RPZ-dkCC6IvJmCxnSjo-90" value="IdAula" style="text;html=1;align=center;verticalAlign=middle;whiteSpace=wrap;rounded=0;" vertex="1" parent="1">
          <mxGeometry x="1486" y="466" width="60" height="30" as="geometry" />
        </mxCell>
        <mxCell id="_RPZ-dkCC6IvJmCxnSjo-91" value="Text" style="text;html=1;align=center;verticalAlign=middle;whiteSpace=wrap;rounded=0;" vertex="1" parent="1">
          <mxGeometry x="1486" y="501" width="60" height="30" as="geometry" />
        </mxCell>
        <mxCell id="_RPZ-dkCC6IvJmCxnSjo-92" value="Text" style="text;html=1;align=center;verticalAlign=middle;whiteSpace=wrap;rounded=0;" vertex="1" parent="1">
          <mxGeometry x="1486" y="536" width="60" height="30" as="geometry" />
        </mxCell>
        <mxCell id="_RPZ-dkCC6IvJmCxnSjo-93" value="Text" style="text;html=1;align=center;verticalAlign=middle;whiteSpace=wrap;rounded=0;" vertex="1" parent="1">
          <mxGeometry x="1486" y="572" width="60" height="30" as="geometry" />
        </mxCell>
        <mxCell id="_RPZ-dkCC6IvJmCxnSjo-94" value="Text" style="text;html=1;align=center;verticalAlign=middle;whiteSpace=wrap;rounded=0;" vertex="1" parent="1">
          <mxGeometry x="1486" y="605" width="60" height="30" as="geometry" />
        </mxCell>
        <mxCell id="_RPZ-dkCC6IvJmCxnSjo-95" value="Text" style="text;html=1;align=center;verticalAlign=middle;whiteSpace=wrap;rounded=0;" vertex="1" parent="1">
          <mxGeometry x="1486" y="638" width="60" height="30" as="geometry" />
        </mxCell>
        <mxCell id="_RPZ-dkCC6IvJmCxnSjo-96" value="Socio" style="shape=table;startSize=30;container=1;collapsible=1;childLayout=tableLayout;fixedRows=1;rowLines=0;fontStyle=1;align=center;resizeLast=1;html=1;" vertex="1" parent="1">
          <mxGeometry x="186" y="897" width="316" height="180" as="geometry" />
        </mxCell>
        <mxCell id="_RPZ-dkCC6IvJmCxnSjo-97" value="" style="shape=tableRow;horizontal=0;startSize=0;swimlaneHead=0;swimlaneBody=0;fillColor=none;collapsible=0;dropTarget=0;points=[[0,0.5],[1,0.5]];portConstraint=eastwest;top=0;left=0;right=0;bottom=1;" vertex="1" parent="_RPZ-dkCC6IvJmCxnSjo-96">
          <mxGeometry y="30" width="316" height="30" as="geometry" />
        </mxCell>
        <mxCell id="_RPZ-dkCC6IvJmCxnSjo-98" value="PK" style="shape=partialRectangle;connectable=0;fillColor=none;top=0;left=0;bottom=0;right=0;fontStyle=1;overflow=hidden;whiteSpace=wrap;html=1;" vertex="1" parent="_RPZ-dkCC6IvJmCxnSjo-97">
          <mxGeometry width="30" height="30" as="geometry">
            <mxRectangle width="30" height="30" as="alternateBounds" />
          </mxGeometry>
        </mxCell>
        <mxCell id="_RPZ-dkCC6IvJmCxnSjo-99" value="IdSocio" style="shape=partialRectangle;connectable=0;fillColor=none;top=0;left=0;bottom=0;right=0;align=left;spacingLeft=6;fontStyle=5;overflow=hidden;whiteSpace=wrap;html=1;" vertex="1" parent="_RPZ-dkCC6IvJmCxnSjo-97">
          <mxGeometry x="30" width="286" height="30" as="geometry">
            <mxRectangle width="286" height="30" as="alternateBounds" />
          </mxGeometry>
        </mxCell>
        <mxCell id="_RPZ-dkCC6IvJmCxnSjo-100" value="" style="shape=tableRow;horizontal=0;startSize=0;swimlaneHead=0;swimlaneBody=0;fillColor=none;collapsible=0;dropTarget=0;points=[[0,0.5],[1,0.5]];portConstraint=eastwest;top=0;left=0;right=0;bottom=0;" vertex="1" parent="_RPZ-dkCC6IvJmCxnSjo-96">
          <mxGeometry y="60" width="316" height="30" as="geometry" />
        </mxCell>
        <mxCell id="_RPZ-dkCC6IvJmCxnSjo-101" value="" style="shape=partialRectangle;connectable=0;fillColor=none;top=0;left=0;bottom=0;right=0;editable=1;overflow=hidden;whiteSpace=wrap;html=1;" vertex="1" parent="_RPZ-dkCC6IvJmCxnSjo-100">
          <mxGeometry width="30" height="30" as="geometry">
            <mxRectangle width="30" height="30" as="alternateBounds" />
          </mxGeometry>
        </mxCell>
        <mxCell id="_RPZ-dkCC6IvJmCxnSjo-102" value="Nome" style="shape=partialRectangle;connectable=0;fillColor=none;top=0;left=0;bottom=0;right=0;align=left;spacingLeft=6;overflow=hidden;whiteSpace=wrap;html=1;" vertex="1" parent="_RPZ-dkCC6IvJmCxnSjo-100">
          <mxGeometry x="30" width="286" height="30" as="geometry">
            <mxRectangle width="286" height="30" as="alternateBounds" />
          </mxGeometry>
        </mxCell>
        <mxCell id="_RPZ-dkCC6IvJmCxnSjo-103" value="" style="shape=tableRow;horizontal=0;startSize=0;swimlaneHead=0;swimlaneBody=0;fillColor=none;collapsible=0;dropTarget=0;points=[[0,0.5],[1,0.5]];portConstraint=eastwest;top=0;left=0;right=0;bottom=0;" vertex="1" parent="_RPZ-dkCC6IvJmCxnSjo-96">
          <mxGeometry y="90" width="316" height="30" as="geometry" />
        </mxCell>
        <mxCell id="_RPZ-dkCC6IvJmCxnSjo-104" value="" style="shape=partialRectangle;connectable=0;fillColor=none;top=0;left=0;bottom=0;right=0;editable=1;overflow=hidden;whiteSpace=wrap;html=1;" vertex="1" parent="_RPZ-dkCC6IvJmCxnSjo-103">
          <mxGeometry width="30" height="30" as="geometry">
            <mxRectangle width="30" height="30" as="alternateBounds" />
          </mxGeometry>
        </mxCell>
        <mxCell id="_RPZ-dkCC6IvJmCxnSjo-105" value="" style="shape=partialRectangle;connectable=0;fillColor=none;top=0;left=0;bottom=0;right=0;align=left;spacingLeft=6;overflow=hidden;whiteSpace=wrap;html=1;" vertex="1" parent="_RPZ-dkCC6IvJmCxnSjo-103">
          <mxGeometry x="30" width="286" height="30" as="geometry">
            <mxRectangle width="286" height="30" as="alternateBounds" />
          </mxGeometry>
        </mxCell>
        <mxCell id="_RPZ-dkCC6IvJmCxnSjo-106" value="" style="shape=tableRow;horizontal=0;startSize=0;swimlaneHead=0;swimlaneBody=0;fillColor=none;collapsible=0;dropTarget=0;points=[[0,0.5],[1,0.5]];portConstraint=eastwest;top=0;left=0;right=0;bottom=0;" vertex="1" parent="_RPZ-dkCC6IvJmCxnSjo-96">
          <mxGeometry y="120" width="316" height="30" as="geometry" />
        </mxCell>
        <mxCell id="_RPZ-dkCC6IvJmCxnSjo-107" value="" style="shape=partialRectangle;connectable=0;fillColor=none;top=0;left=0;bottom=0;right=0;editable=1;overflow=hidden;whiteSpace=wrap;html=1;" vertex="1" parent="_RPZ-dkCC6IvJmCxnSjo-106">
          <mxGeometry width="30" height="30" as="geometry">
            <mxRectangle width="30" height="30" as="alternateBounds" />
          </mxGeometry>
        </mxCell>
        <mxCell id="_RPZ-dkCC6IvJmCxnSjo-108" value="" style="shape=partialRectangle;connectable=0;fillColor=none;top=0;left=0;bottom=0;right=0;align=left;spacingLeft=6;overflow=hidden;whiteSpace=wrap;html=1;" vertex="1" parent="_RPZ-dkCC6IvJmCxnSjo-106">
          <mxGeometry x="30" width="286" height="30" as="geometry">
            <mxRectangle width="286" height="30" as="alternateBounds" />
          </mxGeometry>
        </mxCell>
        <mxCell id="_RPZ-dkCC6IvJmCxnSjo-109" style="shape=tableRow;horizontal=0;startSize=0;swimlaneHead=0;swimlaneBody=0;fillColor=none;collapsible=0;dropTarget=0;points=[[0,0.5],[1,0.5]];portConstraint=eastwest;top=0;left=0;right=0;bottom=0;" vertex="1" parent="_RPZ-dkCC6IvJmCxnSjo-96">
          <mxGeometry y="150" width="316" height="30" as="geometry" />
        </mxCell>
        <mxCell id="_RPZ-dkCC6IvJmCxnSjo-110" style="shape=partialRectangle;connectable=0;fillColor=none;top=0;left=0;bottom=0;right=0;editable=1;overflow=hidden;whiteSpace=wrap;html=1;" vertex="1" parent="_RPZ-dkCC6IvJmCxnSjo-109">
          <mxGeometry width="30" height="30" as="geometry">
            <mxRectangle width="30" height="30" as="alternateBounds" />
          </mxGeometry>
        </mxCell>
        <mxCell id="_RPZ-dkCC6IvJmCxnSjo-111" value="" style="shape=partialRectangle;connectable=0;fillColor=none;top=0;left=0;bottom=0;right=0;align=left;spacingLeft=6;overflow=hidden;whiteSpace=wrap;html=1;" vertex="1" parent="_RPZ-dkCC6IvJmCxnSjo-109">
          <mxGeometry x="30" width="286" height="30" as="geometry">
            <mxRectangle width="286" height="30" as="alternateBounds" />
          </mxGeometry>
        </mxCell>
        <mxCell id="_RPZ-dkCC6IvJmCxnSjo-112" value="Sessão" style="shape=table;startSize=30;container=1;collapsible=1;childLayout=tableLayout;fixedRows=1;rowLines=0;fontStyle=1;align=center;resizeLast=1;html=1;" vertex="1" parent="1">
          <mxGeometry x="195" y="1333" width="316" height="221" as="geometry" />
        </mxCell>
        <mxCell id="_RPZ-dkCC6IvJmCxnSjo-113" value="" style="shape=tableRow;horizontal=0;startSize=0;swimlaneHead=0;swimlaneBody=0;fillColor=none;collapsible=0;dropTarget=0;points=[[0,0.5],[1,0.5]];portConstraint=eastwest;top=0;left=0;right=0;bottom=1;" vertex="1" parent="_RPZ-dkCC6IvJmCxnSjo-112">
          <mxGeometry y="30" width="316" height="30" as="geometry" />
        </mxCell>
        <mxCell id="_RPZ-dkCC6IvJmCxnSjo-114" value="PK" style="shape=partialRectangle;connectable=0;fillColor=none;top=0;left=0;bottom=0;right=0;fontStyle=1;overflow=hidden;whiteSpace=wrap;html=1;" vertex="1" parent="_RPZ-dkCC6IvJmCxnSjo-113">
          <mxGeometry width="30" height="30" as="geometry">
            <mxRectangle width="30" height="30" as="alternateBounds" />
          </mxGeometry>
        </mxCell>
        <mxCell id="_RPZ-dkCC6IvJmCxnSjo-115" value="IdSessão" style="shape=partialRectangle;connectable=0;fillColor=none;top=0;left=0;bottom=0;right=0;align=left;spacingLeft=6;fontStyle=5;overflow=hidden;whiteSpace=wrap;html=1;" vertex="1" parent="_RPZ-dkCC6IvJmCxnSjo-113">
          <mxGeometry x="30" width="286" height="30" as="geometry">
            <mxRectangle width="286" height="30" as="alternateBounds" />
          </mxGeometry>
        </mxCell>
        <mxCell id="_RPZ-dkCC6IvJmCxnSjo-116" value="" style="shape=tableRow;horizontal=0;startSize=0;swimlaneHead=0;swimlaneBody=0;fillColor=none;collapsible=0;dropTarget=0;points=[[0,0.5],[1,0.5]];portConstraint=eastwest;top=0;left=0;right=0;bottom=0;" vertex="1" parent="_RPZ-dkCC6IvJmCxnSjo-112">
          <mxGeometry y="60" width="316" height="30" as="geometry" />
        </mxCell>
        <mxCell id="_RPZ-dkCC6IvJmCxnSjo-117" value="FK" style="shape=partialRectangle;connectable=0;fillColor=none;top=0;left=0;bottom=0;right=0;editable=1;overflow=hidden;whiteSpace=wrap;html=1;" vertex="1" parent="_RPZ-dkCC6IvJmCxnSjo-116">
          <mxGeometry width="30" height="30" as="geometry">
            <mxRectangle width="30" height="30" as="alternateBounds" />
          </mxGeometry>
        </mxCell>
        <mxCell id="_RPZ-dkCC6IvJmCxnSjo-118" value="IdSocio" style="shape=partialRectangle;connectable=0;fillColor=none;top=0;left=0;bottom=0;right=0;align=left;spacingLeft=6;overflow=hidden;whiteSpace=wrap;html=1;" vertex="1" parent="_RPZ-dkCC6IvJmCxnSjo-116">
          <mxGeometry x="30" width="286" height="30" as="geometry">
            <mxRectangle width="286" height="30" as="alternateBounds" />
          </mxGeometry>
        </mxCell>
        <mxCell id="_RPZ-dkCC6IvJmCxnSjo-119" value="" style="shape=tableRow;horizontal=0;startSize=0;swimlaneHead=0;swimlaneBody=0;fillColor=none;collapsible=0;dropTarget=0;points=[[0,0.5],[1,0.5]];portConstraint=eastwest;top=0;left=0;right=0;bottom=0;" vertex="1" parent="_RPZ-dkCC6IvJmCxnSjo-112">
          <mxGeometry y="90" width="316" height="30" as="geometry" />
        </mxCell>
        <mxCell id="_RPZ-dkCC6IvJmCxnSjo-120" value="FK" style="shape=partialRectangle;connectable=0;fillColor=none;top=0;left=0;bottom=0;right=0;editable=1;overflow=hidden;whiteSpace=wrap;html=1;" vertex="1" parent="_RPZ-dkCC6IvJmCxnSjo-119">
          <mxGeometry width="30" height="30" as="geometry">
            <mxRectangle width="30" height="30" as="alternateBounds" />
          </mxGeometry>
        </mxCell>
        <mxCell id="_RPZ-dkCC6IvJmCxnSjo-121" value="IdProfessor" style="shape=partialRectangle;connectable=0;fillColor=none;top=0;left=0;bottom=0;right=0;align=left;spacingLeft=6;overflow=hidden;whiteSpace=wrap;html=1;" vertex="1" parent="_RPZ-dkCC6IvJmCxnSjo-119">
          <mxGeometry x="30" width="286" height="30" as="geometry">
            <mxRectangle width="286" height="30" as="alternateBounds" />
          </mxGeometry>
        </mxCell>
        <mxCell id="_RPZ-dkCC6IvJmCxnSjo-122" value="" style="shape=tableRow;horizontal=0;startSize=0;swimlaneHead=0;swimlaneBody=0;fillColor=none;collapsible=0;dropTarget=0;points=[[0,0.5],[1,0.5]];portConstraint=eastwest;top=0;left=0;right=0;bottom=0;" vertex="1" parent="_RPZ-dkCC6IvJmCxnSjo-112">
          <mxGeometry y="120" width="316" height="30" as="geometry" />
        </mxCell>
        <mxCell id="_RPZ-dkCC6IvJmCxnSjo-123" value="" style="shape=partialRectangle;connectable=0;fillColor=none;top=0;left=0;bottom=0;right=0;editable=1;overflow=hidden;whiteSpace=wrap;html=1;" vertex="1" parent="_RPZ-dkCC6IvJmCxnSjo-122">
          <mxGeometry width="30" height="30" as="geometry">
            <mxRectangle width="30" height="30" as="alternateBounds" />
          </mxGeometry>
        </mxCell>
        <mxCell id="_RPZ-dkCC6IvJmCxnSjo-124" value="Data e Hora" style="shape=partialRectangle;connectable=0;fillColor=none;top=0;left=0;bottom=0;right=0;align=left;spacingLeft=6;overflow=hidden;whiteSpace=wrap;html=1;" vertex="1" parent="_RPZ-dkCC6IvJmCxnSjo-122">
          <mxGeometry x="30" width="286" height="30" as="geometry">
            <mxRectangle width="286" height="30" as="alternateBounds" />
          </mxGeometry>
        </mxCell>
        <mxCell id="_RPZ-dkCC6IvJmCxnSjo-125" style="shape=tableRow;horizontal=0;startSize=0;swimlaneHead=0;swimlaneBody=0;fillColor=none;collapsible=0;dropTarget=0;points=[[0,0.5],[1,0.5]];portConstraint=eastwest;top=0;left=0;right=0;bottom=0;" vertex="1" parent="_RPZ-dkCC6IvJmCxnSjo-112">
          <mxGeometry y="150" width="316" height="30" as="geometry" />
        </mxCell>
        <mxCell id="_RPZ-dkCC6IvJmCxnSjo-126" style="shape=partialRectangle;connectable=0;fillColor=none;top=0;left=0;bottom=0;right=0;editable=1;overflow=hidden;whiteSpace=wrap;html=1;" vertex="1" parent="_RPZ-dkCC6IvJmCxnSjo-125">
          <mxGeometry width="30" height="30" as="geometry">
            <mxRectangle width="30" height="30" as="alternateBounds" />
          </mxGeometry>
        </mxCell>
        <mxCell id="_RPZ-dkCC6IvJmCxnSjo-127" value="Tipo" style="shape=partialRectangle;connectable=0;fillColor=none;top=0;left=0;bottom=0;right=0;align=left;spacingLeft=6;overflow=hidden;whiteSpace=wrap;html=1;" vertex="1" parent="_RPZ-dkCC6IvJmCxnSjo-125">
          <mxGeometry x="30" width="286" height="30" as="geometry">
            <mxRectangle width="286" height="30" as="alternateBounds" />
          </mxGeometry>
        </mxCell>
        <mxCell id="_RPZ-dkCC6IvJmCxnSjo-128" value="Professor" style="shape=table;startSize=30;container=1;collapsible=1;childLayout=tableLayout;fixedRows=1;rowLines=0;fontStyle=1;align=center;resizeLast=1;html=1;" vertex="1" parent="1">
          <mxGeometry x="767" y="1333" width="316" height="180" as="geometry" />
        </mxCell>
        <mxCell id="_RPZ-dkCC6IvJmCxnSjo-129" value="" style="shape=tableRow;horizontal=0;startSize=0;swimlaneHead=0;swimlaneBody=0;fillColor=none;collapsible=0;dropTarget=0;points=[[0,0.5],[1,0.5]];portConstraint=eastwest;top=0;left=0;right=0;bottom=1;" vertex="1" parent="_RPZ-dkCC6IvJmCxnSjo-128">
          <mxGeometry y="30" width="316" height="30" as="geometry" />
        </mxCell>
        <mxCell id="_RPZ-dkCC6IvJmCxnSjo-130" value="PK" style="shape=partialRectangle;connectable=0;fillColor=none;top=0;left=0;bottom=0;right=0;fontStyle=1;overflow=hidden;whiteSpace=wrap;html=1;" vertex="1" parent="_RPZ-dkCC6IvJmCxnSjo-129">
          <mxGeometry width="30" height="30" as="geometry">
            <mxRectangle width="30" height="30" as="alternateBounds" />
          </mxGeometry>
        </mxCell>
        <mxCell id="_RPZ-dkCC6IvJmCxnSjo-131" value="IdProfessor" style="shape=partialRectangle;connectable=0;fillColor=none;top=0;left=0;bottom=0;right=0;align=left;spacingLeft=6;fontStyle=5;overflow=hidden;whiteSpace=wrap;html=1;" vertex="1" parent="_RPZ-dkCC6IvJmCxnSjo-129">
          <mxGeometry x="30" width="286" height="30" as="geometry">
            <mxRectangle width="286" height="30" as="alternateBounds" />
          </mxGeometry>
        </mxCell>
        <mxCell id="_RPZ-dkCC6IvJmCxnSjo-132" value="" style="shape=tableRow;horizontal=0;startSize=0;swimlaneHead=0;swimlaneBody=0;fillColor=none;collapsible=0;dropTarget=0;points=[[0,0.5],[1,0.5]];portConstraint=eastwest;top=0;left=0;right=0;bottom=0;" vertex="1" parent="_RPZ-dkCC6IvJmCxnSjo-128">
          <mxGeometry y="60" width="316" height="30" as="geometry" />
        </mxCell>
        <mxCell id="_RPZ-dkCC6IvJmCxnSjo-133" value="" style="shape=partialRectangle;connectable=0;fillColor=none;top=0;left=0;bottom=0;right=0;editable=1;overflow=hidden;whiteSpace=wrap;html=1;" vertex="1" parent="_RPZ-dkCC6IvJmCxnSjo-132">
          <mxGeometry width="30" height="30" as="geometry">
            <mxRectangle width="30" height="30" as="alternateBounds" />
          </mxGeometry>
        </mxCell>
        <mxCell id="_RPZ-dkCC6IvJmCxnSjo-134" value="" style="shape=partialRectangle;connectable=0;fillColor=none;top=0;left=0;bottom=0;right=0;align=left;spacingLeft=6;overflow=hidden;whiteSpace=wrap;html=1;" vertex="1" parent="_RPZ-dkCC6IvJmCxnSjo-132">
          <mxGeometry x="30" width="286" height="30" as="geometry">
            <mxRectangle width="286" height="30" as="alternateBounds" />
          </mxGeometry>
        </mxCell>
        <mxCell id="_RPZ-dkCC6IvJmCxnSjo-135" value="" style="shape=tableRow;horizontal=0;startSize=0;swimlaneHead=0;swimlaneBody=0;fillColor=none;collapsible=0;dropTarget=0;points=[[0,0.5],[1,0.5]];portConstraint=eastwest;top=0;left=0;right=0;bottom=0;" vertex="1" parent="_RPZ-dkCC6IvJmCxnSjo-128">
          <mxGeometry y="90" width="316" height="30" as="geometry" />
        </mxCell>
        <mxCell id="_RPZ-dkCC6IvJmCxnSjo-136" value="" style="shape=partialRectangle;connectable=0;fillColor=none;top=0;left=0;bottom=0;right=0;editable=1;overflow=hidden;whiteSpace=wrap;html=1;" vertex="1" parent="_RPZ-dkCC6IvJmCxnSjo-135">
          <mxGeometry width="30" height="30" as="geometry">
            <mxRectangle width="30" height="30" as="alternateBounds" />
          </mxGeometry>
        </mxCell>
        <mxCell id="_RPZ-dkCC6IvJmCxnSjo-137" value="" style="shape=partialRectangle;connectable=0;fillColor=none;top=0;left=0;bottom=0;right=0;align=left;spacingLeft=6;overflow=hidden;whiteSpace=wrap;html=1;" vertex="1" parent="_RPZ-dkCC6IvJmCxnSjo-135">
          <mxGeometry x="30" width="286" height="30" as="geometry">
            <mxRectangle width="286" height="30" as="alternateBounds" />
          </mxGeometry>
        </mxCell>
        <mxCell id="_RPZ-dkCC6IvJmCxnSjo-138" value="" style="shape=tableRow;horizontal=0;startSize=0;swimlaneHead=0;swimlaneBody=0;fillColor=none;collapsible=0;dropTarget=0;points=[[0,0.5],[1,0.5]];portConstraint=eastwest;top=0;left=0;right=0;bottom=0;" vertex="1" parent="_RPZ-dkCC6IvJmCxnSjo-128">
          <mxGeometry y="120" width="316" height="30" as="geometry" />
        </mxCell>
        <mxCell id="_RPZ-dkCC6IvJmCxnSjo-139" value="" style="shape=partialRectangle;connectable=0;fillColor=none;top=0;left=0;bottom=0;right=0;editable=1;overflow=hidden;whiteSpace=wrap;html=1;" vertex="1" parent="_RPZ-dkCC6IvJmCxnSjo-138">
          <mxGeometry width="30" height="30" as="geometry">
            <mxRectangle width="30" height="30" as="alternateBounds" />
          </mxGeometry>
        </mxCell>
        <mxCell id="_RPZ-dkCC6IvJmCxnSjo-140" value="" style="shape=partialRectangle;connectable=0;fillColor=none;top=0;left=0;bottom=0;right=0;align=left;spacingLeft=6;overflow=hidden;whiteSpace=wrap;html=1;" vertex="1" parent="_RPZ-dkCC6IvJmCxnSjo-138">
          <mxGeometry x="30" width="286" height="30" as="geometry">
            <mxRectangle width="286" height="30" as="alternateBounds" />
          </mxGeometry>
        </mxCell>
        <mxCell id="_RPZ-dkCC6IvJmCxnSjo-141" style="shape=tableRow;horizontal=0;startSize=0;swimlaneHead=0;swimlaneBody=0;fillColor=none;collapsible=0;dropTarget=0;points=[[0,0.5],[1,0.5]];portConstraint=eastwest;top=0;left=0;right=0;bottom=0;" vertex="1" parent="_RPZ-dkCC6IvJmCxnSjo-128">
          <mxGeometry y="150" width="316" height="30" as="geometry" />
        </mxCell>
        <mxCell id="_RPZ-dkCC6IvJmCxnSjo-142" style="shape=partialRectangle;connectable=0;fillColor=none;top=0;left=0;bottom=0;right=0;editable=1;overflow=hidden;whiteSpace=wrap;html=1;" vertex="1" parent="_RPZ-dkCC6IvJmCxnSjo-141">
          <mxGeometry width="30" height="30" as="geometry">
            <mxRectangle width="30" height="30" as="alternateBounds" />
          </mxGeometry>
        </mxCell>
        <mxCell id="_RPZ-dkCC6IvJmCxnSjo-143" value="" style="shape=partialRectangle;connectable=0;fillColor=none;top=0;left=0;bottom=0;right=0;align=left;spacingLeft=6;overflow=hidden;whiteSpace=wrap;html=1;" vertex="1" parent="_RPZ-dkCC6IvJmCxnSjo-141">
          <mxGeometry x="30" width="286" height="30" as="geometry">
            <mxRectangle width="286" height="30" as="alternateBounds" />
          </mxGeometry>
        </mxCell>
        <mxCell id="_RPZ-dkCC6IvJmCxnSjo-144" value="Material" style="shape=table;startSize=30;container=1;collapsible=1;childLayout=tableLayout;fixedRows=1;rowLines=0;fontStyle=1;align=center;resizeLast=1;html=1;" vertex="1" parent="1">
          <mxGeometry x="984" y="879" width="316" height="180" as="geometry" />
        </mxCell>
        <mxCell id="_RPZ-dkCC6IvJmCxnSjo-145" value="" style="shape=tableRow;horizontal=0;startSize=0;swimlaneHead=0;swimlaneBody=0;fillColor=none;collapsible=0;dropTarget=0;points=[[0,0.5],[1,0.5]];portConstraint=eastwest;top=0;left=0;right=0;bottom=1;" vertex="1" parent="_RPZ-dkCC6IvJmCxnSjo-144">
          <mxGeometry y="30" width="316" height="30" as="geometry" />
        </mxCell>
        <mxCell id="_RPZ-dkCC6IvJmCxnSjo-146" value="" style="shape=partialRectangle;connectable=0;fillColor=none;top=0;left=0;bottom=0;right=0;fontStyle=1;overflow=hidden;whiteSpace=wrap;html=1;" vertex="1" parent="_RPZ-dkCC6IvJmCxnSjo-145">
          <mxGeometry width="30" height="30" as="geometry">
            <mxRectangle width="30" height="30" as="alternateBounds" />
          </mxGeometry>
        </mxCell>
        <mxCell id="_RPZ-dkCC6IvJmCxnSjo-147" value="IdMaterial" style="shape=partialRectangle;connectable=0;fillColor=none;top=0;left=0;bottom=0;right=0;align=left;spacingLeft=6;fontStyle=5;overflow=hidden;whiteSpace=wrap;html=1;" vertex="1" parent="_RPZ-dkCC6IvJmCxnSjo-145">
          <mxGeometry x="30" width="286" height="30" as="geometry">
            <mxRectangle width="286" height="30" as="alternateBounds" />
          </mxGeometry>
        </mxCell>
        <mxCell id="_RPZ-dkCC6IvJmCxnSjo-148" value="" style="shape=tableRow;horizontal=0;startSize=0;swimlaneHead=0;swimlaneBody=0;fillColor=none;collapsible=0;dropTarget=0;points=[[0,0.5],[1,0.5]];portConstraint=eastwest;top=0;left=0;right=0;bottom=0;" vertex="1" parent="_RPZ-dkCC6IvJmCxnSjo-144">
          <mxGeometry y="60" width="316" height="30" as="geometry" />
        </mxCell>
        <mxCell id="_RPZ-dkCC6IvJmCxnSjo-149" value="" style="shape=partialRectangle;connectable=0;fillColor=none;top=0;left=0;bottom=0;right=0;editable=1;overflow=hidden;whiteSpace=wrap;html=1;" vertex="1" parent="_RPZ-dkCC6IvJmCxnSjo-148">
          <mxGeometry width="30" height="30" as="geometry">
            <mxRectangle width="30" height="30" as="alternateBounds" />
          </mxGeometry>
        </mxCell>
        <mxCell id="_RPZ-dkCC6IvJmCxnSjo-150" value="" style="shape=partialRectangle;connectable=0;fillColor=none;top=0;left=0;bottom=0;right=0;align=left;spacingLeft=6;overflow=hidden;whiteSpace=wrap;html=1;" vertex="1" parent="_RPZ-dkCC6IvJmCxnSjo-148">
          <mxGeometry x="30" width="286" height="30" as="geometry">
            <mxRectangle width="286" height="30" as="alternateBounds" />
          </mxGeometry>
        </mxCell>
        <mxCell id="_RPZ-dkCC6IvJmCxnSjo-151" value="" style="shape=tableRow;horizontal=0;startSize=0;swimlaneHead=0;swimlaneBody=0;fillColor=none;collapsible=0;dropTarget=0;points=[[0,0.5],[1,0.5]];portConstraint=eastwest;top=0;left=0;right=0;bottom=0;" vertex="1" parent="_RPZ-dkCC6IvJmCxnSjo-144">
          <mxGeometry y="90" width="316" height="30" as="geometry" />
        </mxCell>
        <mxCell id="_RPZ-dkCC6IvJmCxnSjo-152" value="" style="shape=partialRectangle;connectable=0;fillColor=none;top=0;left=0;bottom=0;right=0;editable=1;overflow=hidden;whiteSpace=wrap;html=1;" vertex="1" parent="_RPZ-dkCC6IvJmCxnSjo-151">
          <mxGeometry width="30" height="30" as="geometry">
            <mxRectangle width="30" height="30" as="alternateBounds" />
          </mxGeometry>
        </mxCell>
        <mxCell id="_RPZ-dkCC6IvJmCxnSjo-153" value="" style="shape=partialRectangle;connectable=0;fillColor=none;top=0;left=0;bottom=0;right=0;align=left;spacingLeft=6;overflow=hidden;whiteSpace=wrap;html=1;" vertex="1" parent="_RPZ-dkCC6IvJmCxnSjo-151">
          <mxGeometry x="30" width="286" height="30" as="geometry">
            <mxRectangle width="286" height="30" as="alternateBounds" />
          </mxGeometry>
        </mxCell>
        <mxCell id="_RPZ-dkCC6IvJmCxnSjo-154" value="" style="shape=tableRow;horizontal=0;startSize=0;swimlaneHead=0;swimlaneBody=0;fillColor=none;collapsible=0;dropTarget=0;points=[[0,0.5],[1,0.5]];portConstraint=eastwest;top=0;left=0;right=0;bottom=0;" vertex="1" parent="_RPZ-dkCC6IvJmCxnSjo-144">
          <mxGeometry y="120" width="316" height="30" as="geometry" />
        </mxCell>
        <mxCell id="_RPZ-dkCC6IvJmCxnSjo-155" value="" style="shape=partialRectangle;connectable=0;fillColor=none;top=0;left=0;bottom=0;right=0;editable=1;overflow=hidden;whiteSpace=wrap;html=1;" vertex="1" parent="_RPZ-dkCC6IvJmCxnSjo-154">
          <mxGeometry width="30" height="30" as="geometry">
            <mxRectangle width="30" height="30" as="alternateBounds" />
          </mxGeometry>
        </mxCell>
        <mxCell id="_RPZ-dkCC6IvJmCxnSjo-156" value="" style="shape=partialRectangle;connectable=0;fillColor=none;top=0;left=0;bottom=0;right=0;align=left;spacingLeft=6;overflow=hidden;whiteSpace=wrap;html=1;" vertex="1" parent="_RPZ-dkCC6IvJmCxnSjo-154">
          <mxGeometry x="30" width="286" height="30" as="geometry">
            <mxRectangle width="286" height="30" as="alternateBounds" />
          </mxGeometry>
        </mxCell>
        <mxCell id="_RPZ-dkCC6IvJmCxnSjo-157" style="shape=tableRow;horizontal=0;startSize=0;swimlaneHead=0;swimlaneBody=0;fillColor=none;collapsible=0;dropTarget=0;points=[[0,0.5],[1,0.5]];portConstraint=eastwest;top=0;left=0;right=0;bottom=0;" vertex="1" parent="_RPZ-dkCC6IvJmCxnSjo-144">
          <mxGeometry y="150" width="316" height="30" as="geometry" />
        </mxCell>
        <mxCell id="_RPZ-dkCC6IvJmCxnSjo-158" style="shape=partialRectangle;connectable=0;fillColor=none;top=0;left=0;bottom=0;right=0;editable=1;overflow=hidden;whiteSpace=wrap;html=1;" vertex="1" parent="_RPZ-dkCC6IvJmCxnSjo-157">
          <mxGeometry width="30" height="30" as="geometry">
            <mxRectangle width="30" height="30" as="alternateBounds" />
          </mxGeometry>
        </mxCell>
        <mxCell id="_RPZ-dkCC6IvJmCxnSjo-159" value="" style="shape=partialRectangle;connectable=0;fillColor=none;top=0;left=0;bottom=0;right=0;align=left;spacingLeft=6;overflow=hidden;whiteSpace=wrap;html=1;" vertex="1" parent="_RPZ-dkCC6IvJmCxnSjo-157">
          <mxGeometry x="30" width="286" height="30" as="geometry">
            <mxRectangle width="286" height="30" as="alternateBounds" />
          </mxGeometry>
        </mxCell>
        <mxCell id="_RPZ-dkCC6IvJmCxnSjo-160" value="" style="rhombus;whiteSpace=wrap;html=1;" vertex="1" parent="1">
          <mxGeometry x="70" y="139" width="80" height="80" as="geometry" />
        </mxCell>
        <mxCell id="_RPZ-dkCC6IvJmCxnSjo-161" value="1" style="text;html=1;align=center;verticalAlign=middle;whiteSpace=wrap;rounded=0;" vertex="1" parent="1">
          <mxGeometry x="164" y="-113" width="60" height="29" as="geometry" />
        </mxCell>
        <mxCell id="_RPZ-dkCC6IvJmCxnSjo-162" value="N" style="text;html=1;align=center;verticalAlign=middle;whiteSpace=wrap;rounded=0;" vertex="1" parent="1">
          <mxGeometry x="177" y="393" width="60" height="30" as="geometry" />
        </mxCell>
        <mxCell id="_RPZ-dkCC6IvJmCxnSjo-163" value="" style="endArrow=none;html=1;rounded=0;" edge="1" parent="1">
          <mxGeometry width="50" height="50" relative="1" as="geometry">
            <mxPoint x="109.5" y="139" as="sourcePoint" />
            <mxPoint x="110" y="-79" as="targetPoint" />
          </mxGeometry>
        </mxCell>
        <mxCell id="_RPZ-dkCC6IvJmCxnSjo-164" value="" style="endArrow=none;html=1;rounded=0;" edge="1" parent="1">
          <mxGeometry width="50" height="50" relative="1" as="geometry">
            <mxPoint x="110" y="421" as="sourcePoint" />
            <mxPoint x="109.5" y="217" as="targetPoint" />
          </mxGeometry>
        </mxCell>
        <mxCell id="_RPZ-dkCC6IvJmCxnSjo-165" value="" style="endArrow=none;html=1;rounded=0;exitX=0;exitY=0.5;exitDx=0;exitDy=0;" edge="1" parent="1" source="_RPZ-dkCC6IvJmCxnSjo-1">
          <mxGeometry width="50" height="50" relative="1" as="geometry">
            <mxPoint x="64" y="-218" as="sourcePoint" />
            <mxPoint x="111" y="-79" as="targetPoint" />
          </mxGeometry>
        </mxCell>
        <mxCell id="_RPZ-dkCC6IvJmCxnSjo-166" value="" style="endArrow=none;html=1;rounded=0;exitX=0;exitY=0.5;exitDx=0;exitDy=0;" edge="1" parent="1" source="_RPZ-dkCC6IvJmCxnSjo-6">
          <mxGeometry width="50" height="50" relative="1" as="geometry">
            <mxPoint x="243" y="-69" as="sourcePoint" />
            <mxPoint x="105" y="423" as="targetPoint" />
          </mxGeometry>
        </mxCell>
        <mxCell id="_RPZ-dkCC6IvJmCxnSjo-167" value="" style="rhombus;whiteSpace=wrap;html=1;" vertex="1" parent="1">
          <mxGeometry x="580" y="388" width="80" height="80" as="geometry" />
        </mxCell>
        <mxCell id="_RPZ-dkCC6IvJmCxnSjo-168" value="" style="endArrow=none;html=1;rounded=0;exitX=0;exitY=0.5;exitDx=0;exitDy=0;entryX=1;entryY=0.5;entryDx=0;entryDy=0;" edge="1" parent="1">
          <mxGeometry width="50" height="50" relative="1" as="geometry">
            <mxPoint x="842" y="427.5" as="sourcePoint" />
            <mxPoint x="660" y="427.5" as="targetPoint" />
          </mxGeometry>
        </mxCell>
        <mxCell id="_RPZ-dkCC6IvJmCxnSjo-169" value="N" style="text;html=1;align=center;verticalAlign=middle;whiteSpace=wrap;rounded=0;" vertex="1" parent="1">
          <mxGeometry x="404" y="393" width="60" height="29" as="geometry" />
        </mxCell>
        <mxCell id="_RPZ-dkCC6IvJmCxnSjo-170" value="1" style="text;html=1;align=center;verticalAlign=middle;whiteSpace=wrap;rounded=0;" vertex="1" parent="1">
          <mxGeometry x="776" y="393" width="60" height="30" as="geometry" />
        </mxCell>
        <mxCell id="_RPZ-dkCC6IvJmCxnSjo-171" value="" style="endArrow=none;html=1;rounded=0;exitX=0;exitY=0.5;exitDx=0;exitDy=0;entryX=1;entryY=0.5;entryDx=0;entryDy=0;" edge="1" parent="1">
          <mxGeometry width="50" height="50" relative="1" as="geometry">
            <mxPoint x="580" y="427.5" as="sourcePoint" />
            <mxPoint x="398" y="427.5" as="targetPoint" />
          </mxGeometry>
        </mxCell>
        <mxCell id="_RPZ-dkCC6IvJmCxnSjo-172" value="" style="rhombus;whiteSpace=wrap;html=1;" vertex="1" parent="1">
          <mxGeometry x="1184" y="395" width="80" height="80" as="geometry" />
        </mxCell>
        <mxCell id="_RPZ-dkCC6IvJmCxnSjo-173" value="" style="endArrow=none;html=1;rounded=0;exitX=0;exitY=0.5;exitDx=0;exitDy=0;entryX=1;entryY=0.5;entryDx=0;entryDy=0;" edge="1" parent="1">
          <mxGeometry width="50" height="50" relative="1" as="geometry">
            <mxPoint x="1446" y="434.5" as="sourcePoint" />
            <mxPoint x="1264" y="434.5" as="targetPoint" />
          </mxGeometry>
        </mxCell>
        <mxCell id="_RPZ-dkCC6IvJmCxnSjo-174" value="1" style="text;html=1;align=center;verticalAlign=middle;whiteSpace=wrap;rounded=0;" vertex="1" parent="1">
          <mxGeometry x="1008" y="400" width="60" height="29" as="geometry" />
        </mxCell>
        <mxCell id="_RPZ-dkCC6IvJmCxnSjo-175" value="N" style="text;html=1;align=center;verticalAlign=middle;whiteSpace=wrap;rounded=0;" vertex="1" parent="1">
          <mxGeometry x="1386" y="403" width="60" height="30" as="geometry" />
        </mxCell>
        <mxCell id="_RPZ-dkCC6IvJmCxnSjo-176" value="" style="endArrow=none;html=1;rounded=0;exitX=0;exitY=0.5;exitDx=0;exitDy=0;entryX=1;entryY=0.5;entryDx=0;entryDy=0;" edge="1" parent="1">
          <mxGeometry width="50" height="50" relative="1" as="geometry">
            <mxPoint x="1184" y="434.5" as="sourcePoint" />
            <mxPoint x="1002" y="434.5" as="targetPoint" />
          </mxGeometry>
        </mxCell>
        <mxCell id="_RPZ-dkCC6IvJmCxnSjo-177" value="" style="rhombus;whiteSpace=wrap;html=1;" vertex="1" parent="1">
          <mxGeometry x="1180" y="-128" width="80" height="80" as="geometry" />
        </mxCell>
        <mxCell id="_RPZ-dkCC6IvJmCxnSjo-178" value="" style="endArrow=none;html=1;rounded=0;exitX=0;exitY=0.5;exitDx=0;exitDy=0;entryX=1;entryY=0.5;entryDx=0;entryDy=0;" edge="1" parent="1">
          <mxGeometry width="50" height="50" relative="1" as="geometry">
            <mxPoint x="1442" y="-88.5" as="sourcePoint" />
            <mxPoint x="1260" y="-88.5" as="targetPoint" />
          </mxGeometry>
        </mxCell>
        <mxCell id="_RPZ-dkCC6IvJmCxnSjo-179" value="N" style="text;html=1;align=center;verticalAlign=middle;whiteSpace=wrap;rounded=0;" vertex="1" parent="1">
          <mxGeometry x="1004" y="-123" width="60" height="29" as="geometry" />
        </mxCell>
        <mxCell id="_RPZ-dkCC6IvJmCxnSjo-180" value="N" style="text;html=1;align=center;verticalAlign=middle;whiteSpace=wrap;rounded=0;" vertex="1" parent="1">
          <mxGeometry x="1376" y="-123" width="60" height="30" as="geometry" />
        </mxCell>
        <mxCell id="_RPZ-dkCC6IvJmCxnSjo-181" value="" style="endArrow=none;html=1;rounded=0;exitX=0;exitY=0.5;exitDx=0;exitDy=0;entryX=1;entryY=0.5;entryDx=0;entryDy=0;" edge="1" parent="1">
          <mxGeometry width="50" height="50" relative="1" as="geometry">
            <mxPoint x="1180" y="-88.5" as="sourcePoint" />
            <mxPoint x="998" y="-88.5" as="targetPoint" />
          </mxGeometry>
        </mxCell>
        <mxCell id="_RPZ-dkCC6IvJmCxnSjo-182" value="" style="rhombus;whiteSpace=wrap;html=1;" vertex="1" parent="1">
          <mxGeometry x="1673" y="133" width="80" height="80" as="geometry" />
        </mxCell>
        <mxCell id="_RPZ-dkCC6IvJmCxnSjo-183" value="" style="endArrow=none;html=1;rounded=0;entryX=1;entryY=0.5;entryDx=0;entryDy=0;" edge="1" parent="1" target="_RPZ-dkCC6IvJmCxnSjo-4">
          <mxGeometry width="50" height="50" relative="1" as="geometry">
            <mxPoint x="1712.5" y="133" as="sourcePoint" />
            <mxPoint x="1713" y="-88" as="targetPoint" />
          </mxGeometry>
        </mxCell>
        <mxCell id="_RPZ-dkCC6IvJmCxnSjo-184" value="" style="endArrow=none;html=1;rounded=0;exitX=1;exitY=0.5;exitDx=0;exitDy=0;" edge="1" parent="1" source="_RPZ-dkCC6IvJmCxnSjo-3">
          <mxGeometry width="50" height="50" relative="1" as="geometry">
            <mxPoint x="1712.5" y="336" as="sourcePoint" />
            <mxPoint x="1712.5" y="211" as="targetPoint" />
          </mxGeometry>
        </mxCell>
        <mxCell id="_RPZ-dkCC6IvJmCxnSjo-185" value="1" style="text;html=1;align=center;verticalAlign=middle;whiteSpace=wrap;rounded=0;" vertex="1" parent="1">
          <mxGeometry x="1605" y="-113" width="60" height="29" as="geometry" />
        </mxCell>
        <mxCell id="_RPZ-dkCC6IvJmCxnSjo-186" value="N" style="text;html=1;align=center;verticalAlign=middle;whiteSpace=wrap;rounded=0;" vertex="1" parent="1">
          <mxGeometry x="1605" y="427" width="60" height="29" as="geometry" />
        </mxCell>
        <mxCell id="_RPZ-dkCC6IvJmCxnSjo-187" value="Aula" style="shape=table;startSize=30;container=1;collapsible=1;childLayout=tableLayout;fixedRows=1;rowLines=0;fontStyle=1;align=center;resizeLast=1;html=1;" vertex="1" parent="1">
          <mxGeometry x="1335" y="1333" width="316" height="180" as="geometry" />
        </mxCell>
        <mxCell id="_RPZ-dkCC6IvJmCxnSjo-188" value="" style="shape=tableRow;horizontal=0;startSize=0;swimlaneHead=0;swimlaneBody=0;fillColor=none;collapsible=0;dropTarget=0;points=[[0,0.5],[1,0.5]];portConstraint=eastwest;top=0;left=0;right=0;bottom=1;" vertex="1" parent="_RPZ-dkCC6IvJmCxnSjo-187">
          <mxGeometry y="30" width="316" height="30" as="geometry" />
        </mxCell>
        <mxCell id="_RPZ-dkCC6IvJmCxnSjo-189" value="" style="shape=partialRectangle;connectable=0;fillColor=none;top=0;left=0;bottom=0;right=0;fontStyle=1;overflow=hidden;whiteSpace=wrap;html=1;" vertex="1" parent="_RPZ-dkCC6IvJmCxnSjo-188">
          <mxGeometry width="30" height="30" as="geometry">
            <mxRectangle width="30" height="30" as="alternateBounds" />
          </mxGeometry>
        </mxCell>
        <mxCell id="_RPZ-dkCC6IvJmCxnSjo-190" value="IdAula" style="shape=partialRectangle;connectable=0;fillColor=none;top=0;left=0;bottom=0;right=0;align=left;spacingLeft=6;fontStyle=5;overflow=hidden;whiteSpace=wrap;html=1;" vertex="1" parent="_RPZ-dkCC6IvJmCxnSjo-188">
          <mxGeometry x="30" width="286" height="30" as="geometry">
            <mxRectangle width="286" height="30" as="alternateBounds" />
          </mxGeometry>
        </mxCell>
        <mxCell id="_RPZ-dkCC6IvJmCxnSjo-191" value="" style="shape=tableRow;horizontal=0;startSize=0;swimlaneHead=0;swimlaneBody=0;fillColor=none;collapsible=0;dropTarget=0;points=[[0,0.5],[1,0.5]];portConstraint=eastwest;top=0;left=0;right=0;bottom=0;" vertex="1" parent="_RPZ-dkCC6IvJmCxnSjo-187">
          <mxGeometry y="60" width="316" height="30" as="geometry" />
        </mxCell>
        <mxCell id="_RPZ-dkCC6IvJmCxnSjo-192" value="" style="shape=partialRectangle;connectable=0;fillColor=none;top=0;left=0;bottom=0;right=0;editable=1;overflow=hidden;whiteSpace=wrap;html=1;" vertex="1" parent="_RPZ-dkCC6IvJmCxnSjo-191">
          <mxGeometry width="30" height="30" as="geometry">
            <mxRectangle width="30" height="30" as="alternateBounds" />
          </mxGeometry>
        </mxCell>
        <mxCell id="_RPZ-dkCC6IvJmCxnSjo-193" value="IdProfessor" style="shape=partialRectangle;connectable=0;fillColor=none;top=0;left=0;bottom=0;right=0;align=left;spacingLeft=6;overflow=hidden;whiteSpace=wrap;html=1;" vertex="1" parent="_RPZ-dkCC6IvJmCxnSjo-191">
          <mxGeometry x="30" width="286" height="30" as="geometry">
            <mxRectangle width="286" height="30" as="alternateBounds" />
          </mxGeometry>
        </mxCell>
        <mxCell id="_RPZ-dkCC6IvJmCxnSjo-194" value="" style="shape=tableRow;horizontal=0;startSize=0;swimlaneHead=0;swimlaneBody=0;fillColor=none;collapsible=0;dropTarget=0;points=[[0,0.5],[1,0.5]];portConstraint=eastwest;top=0;left=0;right=0;bottom=0;" vertex="1" parent="_RPZ-dkCC6IvJmCxnSjo-187">
          <mxGeometry y="90" width="316" height="30" as="geometry" />
        </mxCell>
        <mxCell id="_RPZ-dkCC6IvJmCxnSjo-195" value="" style="shape=partialRectangle;connectable=0;fillColor=none;top=0;left=0;bottom=0;right=0;editable=1;overflow=hidden;whiteSpace=wrap;html=1;" vertex="1" parent="_RPZ-dkCC6IvJmCxnSjo-194">
          <mxGeometry width="30" height="30" as="geometry">
            <mxRectangle width="30" height="30" as="alternateBounds" />
          </mxGeometry>
        </mxCell>
        <mxCell id="_RPZ-dkCC6IvJmCxnSjo-196" value="IdSala" style="shape=partialRectangle;connectable=0;fillColor=none;top=0;left=0;bottom=0;right=0;align=left;spacingLeft=6;overflow=hidden;whiteSpace=wrap;html=1;" vertex="1" parent="_RPZ-dkCC6IvJmCxnSjo-194">
          <mxGeometry x="30" width="286" height="30" as="geometry">
            <mxRectangle width="286" height="30" as="alternateBounds" />
          </mxGeometry>
        </mxCell>
        <mxCell id="_RPZ-dkCC6IvJmCxnSjo-197" value="" style="shape=tableRow;horizontal=0;startSize=0;swimlaneHead=0;swimlaneBody=0;fillColor=none;collapsible=0;dropTarget=0;points=[[0,0.5],[1,0.5]];portConstraint=eastwest;top=0;left=0;right=0;bottom=0;" vertex="1" parent="_RPZ-dkCC6IvJmCxnSjo-187">
          <mxGeometry y="120" width="316" height="30" as="geometry" />
        </mxCell>
        <mxCell id="_RPZ-dkCC6IvJmCxnSjo-198" value="" style="shape=partialRectangle;connectable=0;fillColor=none;top=0;left=0;bottom=0;right=0;editable=1;overflow=hidden;whiteSpace=wrap;html=1;" vertex="1" parent="_RPZ-dkCC6IvJmCxnSjo-197">
          <mxGeometry width="30" height="30" as="geometry">
            <mxRectangle width="30" height="30" as="alternateBounds" />
          </mxGeometry>
        </mxCell>
        <mxCell id="_RPZ-dkCC6IvJmCxnSjo-199" value="" style="shape=partialRectangle;connectable=0;fillColor=none;top=0;left=0;bottom=0;right=0;align=left;spacingLeft=6;overflow=hidden;whiteSpace=wrap;html=1;" vertex="1" parent="_RPZ-dkCC6IvJmCxnSjo-197">
          <mxGeometry x="30" width="286" height="30" as="geometry">
            <mxRectangle width="286" height="30" as="alternateBounds" />
          </mxGeometry>
        </mxCell>
        <mxCell id="_RPZ-dkCC6IvJmCxnSjo-200" style="shape=tableRow;horizontal=0;startSize=0;swimlaneHead=0;swimlaneBody=0;fillColor=none;collapsible=0;dropTarget=0;points=[[0,0.5],[1,0.5]];portConstraint=eastwest;top=0;left=0;right=0;bottom=0;" vertex="1" parent="_RPZ-dkCC6IvJmCxnSjo-187">
          <mxGeometry y="150" width="316" height="30" as="geometry" />
        </mxCell>
        <mxCell id="_RPZ-dkCC6IvJmCxnSjo-201" style="shape=partialRectangle;connectable=0;fillColor=none;top=0;left=0;bottom=0;right=0;editable=1;overflow=hidden;whiteSpace=wrap;html=1;" vertex="1" parent="_RPZ-dkCC6IvJmCxnSjo-200">
          <mxGeometry width="30" height="30" as="geometry">
            <mxRectangle width="30" height="30" as="alternateBounds" />
          </mxGeometry>
        </mxCell>
        <mxCell id="_RPZ-dkCC6IvJmCxnSjo-202" value="" style="shape=partialRectangle;connectable=0;fillColor=none;top=0;left=0;bottom=0;right=0;align=left;spacingLeft=6;overflow=hidden;whiteSpace=wrap;html=1;" vertex="1" parent="_RPZ-dkCC6IvJmCxnSjo-200">
          <mxGeometry x="30" width="286" height="30" as="geometry">
            <mxRectangle width="286" height="30" as="alternateBounds" />
          </mxGeometry>
        </mxCell>
        <mxCell id="_RPZ-dkCC6IvJmCxnSjo-203" value="Sala" style="shape=table;startSize=30;container=1;collapsible=1;childLayout=tableLayout;fixedRows=1;rowLines=0;fontStyle=1;align=center;resizeLast=1;html=1;" vertex="1" parent="1">
          <mxGeometry x="2018" y="1139" width="316" height="180" as="geometry" />
        </mxCell>
        <mxCell id="_RPZ-dkCC6IvJmCxnSjo-204" value="" style="shape=tableRow;horizontal=0;startSize=0;swimlaneHead=0;swimlaneBody=0;fillColor=none;collapsible=0;dropTarget=0;points=[[0,0.5],[1,0.5]];portConstraint=eastwest;top=0;left=0;right=0;bottom=1;" vertex="1" parent="_RPZ-dkCC6IvJmCxnSjo-203">
          <mxGeometry y="30" width="316" height="30" as="geometry" />
        </mxCell>
        <mxCell id="_RPZ-dkCC6IvJmCxnSjo-205" value="" style="shape=partialRectangle;connectable=0;fillColor=none;top=0;left=0;bottom=0;right=0;fontStyle=1;overflow=hidden;whiteSpace=wrap;html=1;" vertex="1" parent="_RPZ-dkCC6IvJmCxnSjo-204">
          <mxGeometry width="30" height="30" as="geometry">
            <mxRectangle width="30" height="30" as="alternateBounds" />
          </mxGeometry>
        </mxCell>
        <mxCell id="_RPZ-dkCC6IvJmCxnSjo-206" value="IdSala" style="shape=partialRectangle;connectable=0;fillColor=none;top=0;left=0;bottom=0;right=0;align=left;spacingLeft=6;fontStyle=5;overflow=hidden;whiteSpace=wrap;html=1;" vertex="1" parent="_RPZ-dkCC6IvJmCxnSjo-204">
          <mxGeometry x="30" width="286" height="30" as="geometry">
            <mxRectangle width="286" height="30" as="alternateBounds" />
          </mxGeometry>
        </mxCell>
        <mxCell id="_RPZ-dkCC6IvJmCxnSjo-207" value="" style="shape=tableRow;horizontal=0;startSize=0;swimlaneHead=0;swimlaneBody=0;fillColor=none;collapsible=0;dropTarget=0;points=[[0,0.5],[1,0.5]];portConstraint=eastwest;top=0;left=0;right=0;bottom=0;" vertex="1" parent="_RPZ-dkCC6IvJmCxnSjo-203">
          <mxGeometry y="60" width="316" height="30" as="geometry" />
        </mxCell>
        <mxCell id="_RPZ-dkCC6IvJmCxnSjo-208" value="" style="shape=partialRectangle;connectable=0;fillColor=none;top=0;left=0;bottom=0;right=0;editable=1;overflow=hidden;whiteSpace=wrap;html=1;" vertex="1" parent="_RPZ-dkCC6IvJmCxnSjo-207">
          <mxGeometry width="30" height="30" as="geometry">
            <mxRectangle width="30" height="30" as="alternateBounds" />
          </mxGeometry>
        </mxCell>
        <mxCell id="_RPZ-dkCC6IvJmCxnSjo-209" value="" style="shape=partialRectangle;connectable=0;fillColor=none;top=0;left=0;bottom=0;right=0;align=left;spacingLeft=6;overflow=hidden;whiteSpace=wrap;html=1;" vertex="1" parent="_RPZ-dkCC6IvJmCxnSjo-207">
          <mxGeometry x="30" width="286" height="30" as="geometry">
            <mxRectangle width="286" height="30" as="alternateBounds" />
          </mxGeometry>
        </mxCell>
        <mxCell id="_RPZ-dkCC6IvJmCxnSjo-210" value="" style="shape=tableRow;horizontal=0;startSize=0;swimlaneHead=0;swimlaneBody=0;fillColor=none;collapsible=0;dropTarget=0;points=[[0,0.5],[1,0.5]];portConstraint=eastwest;top=0;left=0;right=0;bottom=0;" vertex="1" parent="_RPZ-dkCC6IvJmCxnSjo-203">
          <mxGeometry y="90" width="316" height="30" as="geometry" />
        </mxCell>
        <mxCell id="_RPZ-dkCC6IvJmCxnSjo-211" value="" style="shape=partialRectangle;connectable=0;fillColor=none;top=0;left=0;bottom=0;right=0;editable=1;overflow=hidden;whiteSpace=wrap;html=1;" vertex="1" parent="_RPZ-dkCC6IvJmCxnSjo-210">
          <mxGeometry width="30" height="30" as="geometry">
            <mxRectangle width="30" height="30" as="alternateBounds" />
          </mxGeometry>
        </mxCell>
        <mxCell id="_RPZ-dkCC6IvJmCxnSjo-212" value="" style="shape=partialRectangle;connectable=0;fillColor=none;top=0;left=0;bottom=0;right=0;align=left;spacingLeft=6;overflow=hidden;whiteSpace=wrap;html=1;" vertex="1" parent="_RPZ-dkCC6IvJmCxnSjo-210">
          <mxGeometry x="30" width="286" height="30" as="geometry">
            <mxRectangle width="286" height="30" as="alternateBounds" />
          </mxGeometry>
        </mxCell>
        <mxCell id="_RPZ-dkCC6IvJmCxnSjo-213" value="" style="shape=tableRow;horizontal=0;startSize=0;swimlaneHead=0;swimlaneBody=0;fillColor=none;collapsible=0;dropTarget=0;points=[[0,0.5],[1,0.5]];portConstraint=eastwest;top=0;left=0;right=0;bottom=0;" vertex="1" parent="_RPZ-dkCC6IvJmCxnSjo-203">
          <mxGeometry y="120" width="316" height="30" as="geometry" />
        </mxCell>
        <mxCell id="_RPZ-dkCC6IvJmCxnSjo-214" value="" style="shape=partialRectangle;connectable=0;fillColor=none;top=0;left=0;bottom=0;right=0;editable=1;overflow=hidden;whiteSpace=wrap;html=1;" vertex="1" parent="_RPZ-dkCC6IvJmCxnSjo-213">
          <mxGeometry width="30" height="30" as="geometry">
            <mxRectangle width="30" height="30" as="alternateBounds" />
          </mxGeometry>
        </mxCell>
        <mxCell id="_RPZ-dkCC6IvJmCxnSjo-215" value="" style="shape=partialRectangle;connectable=0;fillColor=none;top=0;left=0;bottom=0;right=0;align=left;spacingLeft=6;overflow=hidden;whiteSpace=wrap;html=1;" vertex="1" parent="_RPZ-dkCC6IvJmCxnSjo-213">
          <mxGeometry x="30" width="286" height="30" as="geometry">
            <mxRectangle width="286" height="30" as="alternateBounds" />
          </mxGeometry>
        </mxCell>
        <mxCell id="_RPZ-dkCC6IvJmCxnSjo-216" style="shape=tableRow;horizontal=0;startSize=0;swimlaneHead=0;swimlaneBody=0;fillColor=none;collapsible=0;dropTarget=0;points=[[0,0.5],[1,0.5]];portConstraint=eastwest;top=0;left=0;right=0;bottom=0;" vertex="1" parent="_RPZ-dkCC6IvJmCxnSjo-203">
          <mxGeometry y="150" width="316" height="30" as="geometry" />
        </mxCell>
        <mxCell id="_RPZ-dkCC6IvJmCxnSjo-217" style="shape=partialRectangle;connectable=0;fillColor=none;top=0;left=0;bottom=0;right=0;editable=1;overflow=hidden;whiteSpace=wrap;html=1;" vertex="1" parent="_RPZ-dkCC6IvJmCxnSjo-216">
          <mxGeometry width="30" height="30" as="geometry">
            <mxRectangle width="30" height="30" as="alternateBounds" />
          </mxGeometry>
        </mxCell>
        <mxCell id="_RPZ-dkCC6IvJmCxnSjo-218" value="" style="shape=partialRectangle;connectable=0;fillColor=none;top=0;left=0;bottom=0;right=0;align=left;spacingLeft=6;overflow=hidden;whiteSpace=wrap;html=1;" vertex="1" parent="_RPZ-dkCC6IvJmCxnSjo-216">
          <mxGeometry x="30" width="286" height="30" as="geometry">
            <mxRectangle width="286" height="30" as="alternateBounds" />
          </mxGeometry>
        </mxCell>
        <mxCell id="_RPZ-dkCC6IvJmCxnSjo-219" value="Material Sala" style="shape=table;startSize=30;container=1;collapsible=1;childLayout=tableLayout;fixedRows=1;rowLines=0;fontStyle=1;align=center;resizeLast=1;html=1;" vertex="1" parent="1">
          <mxGeometry x="1560" y="876" width="316" height="180" as="geometry" />
        </mxCell>
        <mxCell id="_RPZ-dkCC6IvJmCxnSjo-220" value="" style="shape=tableRow;horizontal=0;startSize=0;swimlaneHead=0;swimlaneBody=0;fillColor=none;collapsible=0;dropTarget=0;points=[[0,0.5],[1,0.5]];portConstraint=eastwest;top=0;left=0;right=0;bottom=1;" vertex="1" parent="_RPZ-dkCC6IvJmCxnSjo-219">
          <mxGeometry y="30" width="316" height="30" as="geometry" />
        </mxCell>
        <mxCell id="_RPZ-dkCC6IvJmCxnSjo-221" value="PK" style="shape=partialRectangle;connectable=0;fillColor=none;top=0;left=0;bottom=0;right=0;fontStyle=1;overflow=hidden;whiteSpace=wrap;html=1;" vertex="1" parent="_RPZ-dkCC6IvJmCxnSjo-220">
          <mxGeometry width="30" height="30" as="geometry">
            <mxRectangle width="30" height="30" as="alternateBounds" />
          </mxGeometry>
        </mxCell>
        <mxCell id="_RPZ-dkCC6IvJmCxnSjo-222" value="IdSala" style="shape=partialRectangle;connectable=0;fillColor=none;top=0;left=0;bottom=0;right=0;align=left;spacingLeft=6;fontStyle=5;overflow=hidden;whiteSpace=wrap;html=1;" vertex="1" parent="_RPZ-dkCC6IvJmCxnSjo-220">
          <mxGeometry x="30" width="286" height="30" as="geometry">
            <mxRectangle width="286" height="30" as="alternateBounds" />
          </mxGeometry>
        </mxCell>
        <mxCell id="_RPZ-dkCC6IvJmCxnSjo-223" value="" style="shape=tableRow;horizontal=0;startSize=0;swimlaneHead=0;swimlaneBody=0;fillColor=none;collapsible=0;dropTarget=0;points=[[0,0.5],[1,0.5]];portConstraint=eastwest;top=0;left=0;right=0;bottom=0;" vertex="1" parent="_RPZ-dkCC6IvJmCxnSjo-219">
          <mxGeometry y="60" width="316" height="30" as="geometry" />
        </mxCell>
        <mxCell id="_RPZ-dkCC6IvJmCxnSjo-224" value="PK" style="shape=partialRectangle;connectable=0;fillColor=none;top=0;left=0;bottom=0;right=0;editable=1;overflow=hidden;whiteSpace=wrap;html=1;" vertex="1" parent="_RPZ-dkCC6IvJmCxnSjo-223">
          <mxGeometry width="30" height="30" as="geometry">
            <mxRectangle width="30" height="30" as="alternateBounds" />
          </mxGeometry>
        </mxCell>
        <mxCell id="_RPZ-dkCC6IvJmCxnSjo-225" value="IdMateiral" style="shape=partialRectangle;connectable=0;fillColor=none;top=0;left=0;bottom=0;right=0;align=left;spacingLeft=6;overflow=hidden;whiteSpace=wrap;html=1;" vertex="1" parent="_RPZ-dkCC6IvJmCxnSjo-223">
          <mxGeometry x="30" width="286" height="30" as="geometry">
            <mxRectangle width="286" height="30" as="alternateBounds" />
          </mxGeometry>
        </mxCell>
        <mxCell id="_RPZ-dkCC6IvJmCxnSjo-226" value="" style="shape=tableRow;horizontal=0;startSize=0;swimlaneHead=0;swimlaneBody=0;fillColor=none;collapsible=0;dropTarget=0;points=[[0,0.5],[1,0.5]];portConstraint=eastwest;top=0;left=0;right=0;bottom=0;" vertex="1" parent="_RPZ-dkCC6IvJmCxnSjo-219">
          <mxGeometry y="90" width="316" height="30" as="geometry" />
        </mxCell>
        <mxCell id="_RPZ-dkCC6IvJmCxnSjo-227" value="" style="shape=partialRectangle;connectable=0;fillColor=none;top=0;left=0;bottom=0;right=0;editable=1;overflow=hidden;whiteSpace=wrap;html=1;" vertex="1" parent="_RPZ-dkCC6IvJmCxnSjo-226">
          <mxGeometry width="30" height="30" as="geometry">
            <mxRectangle width="30" height="30" as="alternateBounds" />
          </mxGeometry>
        </mxCell>
        <mxCell id="_RPZ-dkCC6IvJmCxnSjo-228" value="" style="shape=partialRectangle;connectable=0;fillColor=none;top=0;left=0;bottom=0;right=0;align=left;spacingLeft=6;overflow=hidden;whiteSpace=wrap;html=1;" vertex="1" parent="_RPZ-dkCC6IvJmCxnSjo-226">
          <mxGeometry x="30" width="286" height="30" as="geometry">
            <mxRectangle width="286" height="30" as="alternateBounds" />
          </mxGeometry>
        </mxCell>
        <mxCell id="_RPZ-dkCC6IvJmCxnSjo-229" value="" style="shape=tableRow;horizontal=0;startSize=0;swimlaneHead=0;swimlaneBody=0;fillColor=none;collapsible=0;dropTarget=0;points=[[0,0.5],[1,0.5]];portConstraint=eastwest;top=0;left=0;right=0;bottom=0;" vertex="1" parent="_RPZ-dkCC6IvJmCxnSjo-219">
          <mxGeometry y="120" width="316" height="30" as="geometry" />
        </mxCell>
        <mxCell id="_RPZ-dkCC6IvJmCxnSjo-230" value="" style="shape=partialRectangle;connectable=0;fillColor=none;top=0;left=0;bottom=0;right=0;editable=1;overflow=hidden;whiteSpace=wrap;html=1;" vertex="1" parent="_RPZ-dkCC6IvJmCxnSjo-229">
          <mxGeometry width="30" height="30" as="geometry">
            <mxRectangle width="30" height="30" as="alternateBounds" />
          </mxGeometry>
        </mxCell>
        <mxCell id="_RPZ-dkCC6IvJmCxnSjo-231" value="" style="shape=partialRectangle;connectable=0;fillColor=none;top=0;left=0;bottom=0;right=0;align=left;spacingLeft=6;overflow=hidden;whiteSpace=wrap;html=1;" vertex="1" parent="_RPZ-dkCC6IvJmCxnSjo-229">
          <mxGeometry x="30" width="286" height="30" as="geometry">
            <mxRectangle width="286" height="30" as="alternateBounds" />
          </mxGeometry>
        </mxCell>
        <mxCell id="_RPZ-dkCC6IvJmCxnSjo-232" style="shape=tableRow;horizontal=0;startSize=0;swimlaneHead=0;swimlaneBody=0;fillColor=none;collapsible=0;dropTarget=0;points=[[0,0.5],[1,0.5]];portConstraint=eastwest;top=0;left=0;right=0;bottom=0;" vertex="1" parent="_RPZ-dkCC6IvJmCxnSjo-219">
          <mxGeometry y="150" width="316" height="30" as="geometry" />
        </mxCell>
        <mxCell id="_RPZ-dkCC6IvJmCxnSjo-233" style="shape=partialRectangle;connectable=0;fillColor=none;top=0;left=0;bottom=0;right=0;editable=1;overflow=hidden;whiteSpace=wrap;html=1;" vertex="1" parent="_RPZ-dkCC6IvJmCxnSjo-232">
          <mxGeometry width="30" height="30" as="geometry">
            <mxRectangle width="30" height="30" as="alternateBounds" />
          </mxGeometry>
        </mxCell>
        <mxCell id="_RPZ-dkCC6IvJmCxnSjo-234" value="" style="shape=partialRectangle;connectable=0;fillColor=none;top=0;left=0;bottom=0;right=0;align=left;spacingLeft=6;overflow=hidden;whiteSpace=wrap;html=1;" vertex="1" parent="_RPZ-dkCC6IvJmCxnSjo-232">
          <mxGeometry x="30" width="286" height="30" as="geometry">
            <mxRectangle width="286" height="30" as="alternateBounds" />
          </mxGeometry>
        </mxCell>
        <mxCell id="_RPZ-dkCC6IvJmCxnSjo-237" value="" style="endArrow=none;html=1;rounded=0;exitX=1;exitY=0.5;exitDx=0;exitDy=0;entryX=0;entryY=0.5;entryDx=0;entryDy=0;" edge="1" parent="1" source="_RPZ-dkCC6IvJmCxnSjo-119" target="_RPZ-dkCC6IvJmCxnSjo-129">
          <mxGeometry width="50" height="50" relative="1" as="geometry">
            <mxPoint x="983" y="1244" as="sourcePoint" />
            <mxPoint x="1033" y="1194" as="targetPoint" />
          </mxGeometry>
        </mxCell>
        <mxCell id="_RPZ-dkCC6IvJmCxnSjo-238" value="" style="endArrow=none;html=1;rounded=0;exitX=0;exitY=0.5;exitDx=0;exitDy=0;entryX=0;entryY=0.5;entryDx=0;entryDy=0;" edge="1" parent="1" source="_RPZ-dkCC6IvJmCxnSjo-116" target="_RPZ-dkCC6IvJmCxnSjo-97">
          <mxGeometry width="50" height="50" relative="1" as="geometry">
            <mxPoint x="983" y="1244" as="sourcePoint" />
            <mxPoint x="1033" y="1194" as="targetPoint" />
          </mxGeometry>
        </mxCell>
        <mxCell id="_RPZ-dkCC6IvJmCxnSjo-239" value="" style="endArrow=none;html=1;rounded=0;exitX=1;exitY=0.5;exitDx=0;exitDy=0;entryX=0;entryY=0.5;entryDx=0;entryDy=0;" edge="1" parent="1" source="_RPZ-dkCC6IvJmCxnSjo-129" target="_RPZ-dkCC6IvJmCxnSjo-191">
          <mxGeometry width="50" height="50" relative="1" as="geometry">
            <mxPoint x="1451" y="1199" as="sourcePoint" />
            <mxPoint x="1501" y="1149" as="targetPoint" />
          </mxGeometry>
        </mxCell>
        <mxCell id="_RPZ-dkCC6IvJmCxnSjo-240" value="" style="endArrow=none;html=1;rounded=0;exitX=1;exitY=0.5;exitDx=0;exitDy=0;entryX=0;entryY=0.5;entryDx=0;entryDy=0;" edge="1" parent="1" source="_RPZ-dkCC6IvJmCxnSjo-194" target="_RPZ-dkCC6IvJmCxnSjo-204">
          <mxGeometry width="50" height="50" relative="1" as="geometry">
            <mxPoint x="1451" y="1199" as="sourcePoint" />
            <mxPoint x="1501" y="1149" as="targetPoint" />
          </mxGeometry>
        </mxCell>
        <mxCell id="_RPZ-dkCC6IvJmCxnSjo-241" value="" style="endArrow=none;html=1;rounded=0;entryX=0;entryY=0.5;entryDx=0;entryDy=0;exitX=1;exitY=0.5;exitDx=0;exitDy=0;" edge="1" parent="1" source="_RPZ-dkCC6IvJmCxnSjo-145" target="_RPZ-dkCC6IvJmCxnSjo-220">
          <mxGeometry width="50" height="50" relative="1" as="geometry">
            <mxPoint x="1451" y="1199" as="sourcePoint" />
            <mxPoint x="1501" y="1149" as="targetPoint" />
          </mxGeometry>
        </mxCell>
        <mxCell id="_RPZ-dkCC6IvJmCxnSjo-242" value="" style="endArrow=none;html=1;rounded=0;exitX=0;exitY=0.5;exitDx=0;exitDy=0;entryX=1;entryY=0.5;entryDx=0;entryDy=0;" edge="1" parent="1" source="_RPZ-dkCC6IvJmCxnSjo-204" target="_RPZ-dkCC6IvJmCxnSjo-220">
          <mxGeometry width="50" height="50" relative="1" as="geometry">
            <mxPoint x="1451" y="1199" as="sourcePoint" />
            <mxPoint x="1501" y="1149" as="targetPoint" />
          </mxGeometry>
        </mxCell>
        <mxCell id="_RPZ-dkCC6IvJmCxnSjo-243" value="Duração" style="text;html=1;align=center;verticalAlign=middle;resizable=0;points=[];autosize=1;strokeColor=none;fillColor=none;" vertex="1" parent="1">
          <mxGeometry x="233" y="1523" width="63" height="26" as="geometry" />
        </mxCell>
      </root>
    </mxGraphModel>
  </diagram>
</mxfile>
